<?xml version="1.0" standalone="no"?>
<!DOCTYPE svg PUBLIC "-//W3C//DTD SVG 1.1//EN" "http://www.w3.org/Graphics/SVG/1.1/DTD/svg11.dtd" >
<svg xmlns="http://www.w3.org/2000/svg" xmlns:xlink="http://www.w3.org/1999/xlink" version="1.1">
<metadata>
Created by FontForge 20200314 at Fri Dec 11 06:14:55 1992
 By Unknown
Copyright 1990-1993 Bitstream Inc.  All rights reserved.
</metadata>
<defs>
<font id="FranklinGothicBT-RomanCondensed" horiz-adv-x="1024" >
  <font-face 
    font-family="FrankGoth Cn BT"
    font-weight="400"
    font-stretch="condensed"
    units-per-em="2048"
    panose-1="2 11 8 6 3 7 2 3 2 4"
    ascent="1638"
    descent="-410"
    x-height="1028"
    cap-height="1460"
    bbox="-342 -485 2048 2068"
    underline-thickness="205"
    underline-position="-303"
    unicode-range="U+0020-F002"
  />
<missing-glyph horiz-adv-x="1229" 
d="M102 -362v1806h1024v-1806h-1024zM217 -248h795v1577h-795v-1577z" />
    <glyph glyph-name=".notdef" horiz-adv-x="1229" 
d="M102 -362v1806h1024v-1806h-1024zM217 -248h795v1577h-795v-1577z" />
    <glyph glyph-name=".null" horiz-adv-x="0" 
 />
    <glyph glyph-name="nonmarkingreturn" horiz-adv-x="573" 
 />
    <glyph glyph-name="space" unicode=" " horiz-adv-x="573" 
 />
    <glyph glyph-name="exclam" unicode="!" horiz-adv-x="541" 
d="M379 508h-221l-80 952h383zM94 0v365h350v-365h-350z" />
    <glyph glyph-name="quotedbl" unicode="&#x22;" horiz-adv-x="758" 
d="M690 1440v-563h-260v563h260zM326 1440v-563h-258v563h258z" />
    <glyph glyph-name="numbersign" unicode="#" horiz-adv-x="1575" 
d="M946 834h-239l-78 -213h239zM938 1470l-129 -366h227l129 366h289l-129 -366h256l-100 -270h-252l-76 -213h258l-100 -271h-254l-131 -366h-289l131 366h-227l-131 -366h-289l131 366h-258l100 271h254l74 213h-258l98 270h258l129 366h289z" />
    <glyph glyph-name="dollar" unicode="$" horiz-adv-x="1147" 
d="M530 950v248q-46 -12 -72 -44.5t-26 -78.5q0 -35 26 -68t72 -57zM625 545v-281q52 14 81 49.5t29 85.5q0 47 -26 82t-84 64zM340 473q39 -91 85 -139.5t105 -63.5v303q-229 93 -328.5 198t-99.5 253q0 177 111.5 292.5t306.5 139.5v209h115v-209q147 -20 246 -98.5
t147 -212.5l-280 -111q-24 61 -54 98t-69 54v-264q251 -102 349.5 -206.5t98.5 -260.5q0 -180 -120 -304t-318 -147v-215h-115v213q-162 6 -286.5 100t-188.5 258z" />
    <glyph glyph-name="percent" unicode="%" horiz-adv-x="1366" 
d="M983 1460h180l-780 -1460h-182zM1057 -25q-143 0 -216 96.5t-73 284.5q0 189 72 284t217 95q144 0 216.5 -95t72.5 -284q0 -188 -73 -284.5t-216 -96.5zM1057 131q32 0 44.5 43t12.5 180q0 139 -12.5 183.5t-44.5 44.5t-45 -46.5t-13 -181.5q0 -132 13 -177.5t45 -45.5z
M307 874q32 0 45 43.5t13 182.5q0 138 -13 181.5t-45 43.5t-44.5 -46t-12.5 -179q0 -134 12.5 -180t44.5 -46zM307 721q-143 0 -216 95.5t-73 283.5q0 189 72.5 284t216.5 95t216.5 -95t72.5 -284q0 -188 -72.5 -283.5t-216.5 -95.5z" />
    <glyph glyph-name="ampersand" unicode="&#x26;" horiz-adv-x="1298" 
d="M612 956q66 74 90.5 119.5t24.5 89.5q0 49 -28 79t-72 30t-71.5 -32t-27.5 -83q0 -41 19 -87.5t65 -115.5zM674 317q-49 57 -97.5 122t-109.5 159q-43 -41 -64.5 -83.5t-21.5 -84.5q0 -72 44.5 -118t113.5 -46q33 0 66 12.5t69 38.5zM858 150q-109 -90 -217 -134.5
t-217 -44.5q-176 0 -292 113.5t-116 282.5q0 130 77.5 233.5t238.5 187.5q-67 100 -97 179.5t-30 152.5q0 165 117 267t309 102q172 0 282.5 -89t110.5 -222q0 -101 -71.5 -197.5t-219.5 -196.5q22 -36 60 -85t104 -124q41 58 66 115t34 117l271 -64q-35 -109 -82.5 -199.5
t-110.5 -166.5q39 -36 85 -53t106 -17h22v-323q-142 7 -248.5 48t-181.5 118z" />
    <glyph glyph-name="quotesingle" unicode="'" horiz-adv-x="393" 
d="M326 1440v-563h-258v563h258z" />
    <glyph glyph-name="parenleft" unicode="(" horiz-adv-x="559" 
d="M508 1460q-74 -189 -111 -395.5t-37 -425.5t37 -425.5t111 -395.5h-260q-71 213 -107.5 420t-36.5 401t36 400.5t108 420.5h260z" />
    <glyph glyph-name="parenright" unicode=")" horiz-adv-x="559" 
d="M51 -182q74 189 111 395.5t37 425.5t-37 425.5t-111 395.5h260q71 -213 107.5 -420t36.5 -401t-36 -400.5t-108 -420.5h-260z" />
    <glyph glyph-name="asterisk" unicode="*" 
d="M512 946l-152 -338l-200 146l272 252l-366 36l75 238l322 -182l-78 362h254l-78 -362l322 182l75 -238l-366 -36l272 -252l-200 -146z" />
    <glyph glyph-name="plus" unicode="+" horiz-adv-x="1706" 
d="M993 1221v-473h459v-273h-459v-475h-280v475h-459v273h459v473h280z" />
    <glyph glyph-name="comma" unicode="," horiz-adv-x="573" 
d="M121 0v365h350v-324l-195 -344h-192l160 303h-123z" />
    <glyph glyph-name="hyphen" unicode="-" horiz-adv-x="588" 
d="M47 365v299h494v-299h-494z" />
    <glyph glyph-name="period" unicode="." horiz-adv-x="573" 
d="M111 0v365h352v-365h-352z" />
    <glyph glyph-name="slash" unicode="/" horiz-adv-x="569" 
d="M424 1489h192l-471 -1677h-192z" />
    <glyph glyph-name="zero" unicode="0" horiz-adv-x="1147" 
d="M702 727q0 333 -27 412.5t-102 79.5q-72 0 -99.5 -77.5t-27.5 -414.5q0 -336 27.5 -412.5t99.5 -76.5q75 0 102 78.5t27 410.5zM573 -25q-252 0 -384 192t-132 560q0 369 131.5 560.5t384.5 191.5q254 0 385.5 -191.5t131.5 -560.5t-131.5 -560.5t-385.5 -191.5z" />
    <glyph glyph-name="one" unicode="1" horiz-adv-x="1147" 
d="M215 0v246h221v850l-221 -52v250q101 22 193.5 63t179.5 103h194v-1214h205v-246h-772z" />
    <glyph glyph-name="two" unicode="2" horiz-adv-x="1147" 
d="M43 0v256q403 371 524 530.5t121 280.5q0 70 -30.5 110t-84.5 40q-65 0 -108.5 -52.5t-75.5 -169.5l-313 80q52 189 189 296.5t327 107.5q217 0 342 -108.5t125 -295.5q0 -176 -140 -352.5t-473 -413.5h588v-309h-991z" />
    <glyph glyph-name="three" unicode="3" horiz-adv-x="1147" 
d="M287 418q32 -89 83 -132.5t122 -43.5q84 0 132 47.5t48 132.5q0 102 -67.5 153.5t-203.5 51.5q-27 0 -41.5 -0.5t-27.5 -1.5v241q11 -1 22.5 -1.5t34.5 -0.5q128 0 195 52t67 151q0 66 -40 109t-103 43t-111 -42.5t-78 -123.5l-274 127q61 144 188.5 221.5t303.5 77.5
q206 0 341.5 -111t135.5 -276q0 -126 -80.5 -211.5t-231.5 -120.5q172 -15 262.5 -102.5t90.5 -237.5q0 -197 -150.5 -321t-392.5 -124q-184 0 -306.5 78.5t-193.5 241.5z" />
    <glyph glyph-name="four" unicode="4" horiz-adv-x="1147" 
d="M313 606h262l15 488zM569 0v360h-510v246l510 854h351v-854h184v-246h-184v-360h-351z" />
    <glyph glyph-name="five" unicode="5" horiz-adv-x="1147" 
d="M340 446q23 -104 71 -157t119 -53q85 0 132 62t47 175q0 105 -49 166t-132 61q-49 0 -85.5 -24t-71.5 -80l-256 106l49 758h833l-16 -295h-549l-18 -272q57 28 110.5 42.5t102.5 14.5q194 0 320 -127t126 -321q0 -109 -35 -201t-104 -164q-76 -79 -176 -120.5t-215 -41.5
q-177 0 -299 93.5t-181 273.5z" />
    <glyph glyph-name="six" unicode="6" horiz-adv-x="1147" 
d="M459 821q66 46 131 68t131 22q173 0 280 -111.5t107 -293.5q0 -103 -34.5 -195t-100.5 -166q-75 -82 -172.5 -123.5t-214.5 -41.5q-238 0 -377 197t-139 540q0 344 154.5 555t402.5 211q179 0 292 -97.5t154 -289.5l-311 -49q-9 81 -46.5 127.5t-94.5 46.5
q-85 0 -123.5 -94t-38.5 -306zM457 629v-25q0 -198 32 -279t107 -81q66 0 104.5 60t38.5 165q0 101 -39 153t-116 52q-34 0 -65 -11t-62 -34z" />
    <glyph glyph-name="seven" unicode="7" horiz-adv-x="1147" 
d="M227 0q40 272 157 557t316 594h-569v309h942v-196q-195 -297 -300.5 -609.5t-125.5 -654.5h-420z" />
    <glyph glyph-name="eight" unicode="8" horiz-adv-x="1147" 
d="M514 604q-57 -58 -82.5 -107.5t-25.5 -99.5q0 -72 47 -118t122 -46q73 0 119.5 43t46.5 109q0 69 -59 126t-168 93zM651 891q58 49 84.5 98.5t26.5 106.5q0 71 -41 113t-111 42q-68 0 -112.5 -40.5t-44.5 -102.5t45.5 -112.5t152.5 -104.5zM340 717q-118 55 -177 137
t-59 188q0 199 137 318t365 119q209 0 328 -98.5t119 -270.5q0 -108 -59.5 -191.5t-172.5 -132.5q140 -49 212.5 -141.5t72.5 -222.5q0 -200 -153 -323.5t-406 -123.5q-219 0 -360.5 115.5t-141.5 290.5q0 116 78.5 205.5t216.5 130.5z" />
    <glyph glyph-name="nine" unicode="9" horiz-adv-x="1147" 
d="M690 831v25q0 198 -32 279.5t-107 81.5q-66 0 -104.5 -60.5t-38.5 -165.5q0 -100 39 -151.5t116 -51.5q33 0 64.5 11t62.5 32zM688 639q-65 -45 -129 -66.5t-131 -21.5q-173 0 -281 112t-108 293q0 103 34.5 195t100.5 166q74 82 172 124t215 42q238 0 377 -198.5
t139 -541.5t-154.5 -553t-402.5 -210q-180 0 -292.5 96.5t-153.5 288.5l313 50q9 -81 46 -127t93 -46q86 0 124 92.5t38 304.5z" />
    <glyph glyph-name="colon" unicode=":" horiz-adv-x="573" 
d="M111 664v364h352v-364h-352zM111 0v365h352v-365h-352z" />
    <glyph glyph-name="semicolon" unicode=";" horiz-adv-x="573" 
d="M121 664v364h350v-364h-350zM121 0v365h350v-324l-195 -344h-192l160 303h-123z" />
    <glyph glyph-name="less" unicode="&#x3c;" horiz-adv-x="1706" 
d="M1442 938l-801 -328l801 -327v-299l-1178 487v281l1178 487v-301z" />
    <glyph glyph-name="equal" unicode="=" horiz-adv-x="1706" 
d="M1452 512v-272h-1198v272h1198zM1452 983v-272h-1198v272h1198z" />
    <glyph glyph-name="greater" unicode="&#x3e;" horiz-adv-x="1706" 
d="M1442 752v-281l-1178 -487v299l801 327l-801 328v301z" />
    <glyph glyph-name="question" unicode="?" horiz-adv-x="938" 
d="M301 516v82q0 81 25 150.5t84 146.5q20 26 61 71q92 101 92 164q0 54 -32 86.5t-85 32.5q-68 0 -103.5 -50.5t-35.5 -147.5v-25l-294 53q9 190 130.5 300t319.5 110q200 0 318 -90.5t118 -241.5q0 -118 -159 -297q-26 -29 -40 -45q-68 -80 -88 -139t-20 -141v-19h-291z
M270 0v365h353v-365h-353z" />
    <glyph glyph-name="at" unicode="@" horiz-adv-x="2048" 
d="M1241 911l49 82h242l-156 -627q-2 -12 -3 -18.5t-1 -11.5q0 -24 12.5 -36.5t34.5 -12.5q128 0 231 142t103 331q0 236 -174.5 381t-462.5 145q-142 0 -266 -35.5t-225 -105.5q-154 -108 -238 -269t-84 -350q0 -294 199.5 -468.5t535.5 -174.5q160 0 307.5 47t278.5 140
l115 -160q-164 -122 -342 -181t-381 -59q-188 0 -355 54.5t-294 156.5q-149 119 -223 279t-74 360q0 176 55.5 332.5t163.5 284.5q149 177 361.5 271.5t461.5 94.5q386 0 626 -206t240 -533q0 -171 -68 -314.5t-196 -242.5q-70 -55 -153.5 -84t-174.5 -29q-109 0 -166.5 38
t-66.5 115q-59 -79 -127.5 -115t-161.5 -36q-171 0 -257.5 88t-86.5 262q0 247 143.5 411.5t356.5 164.5q74 0 130.5 -28t90.5 -83zM1126 494l47 195q-7 67 -42 104.5t-91 37.5q-95 0 -167 -116.5t-72 -274.5q0 -72 30.5 -111.5t86.5 -39.5q72 0 129 55.5t79 149.5z" />
    <glyph glyph-name="A" unicode="A" horiz-adv-x="1075" 
d="M395 553h226l-109 588zM-35 0l346 1460h482l317 -1460h-379l-55 295h-340l-62 -295h-309z" />
    <glyph glyph-name="B" unicode="B" horiz-adv-x="1223" 
d="M479 633v-354h117q104 0 152.5 43.5t48.5 136.5q0 91 -51.5 132.5t-163.5 41.5h-103zM479 1200v-317h92q114 0 164.5 39t50.5 127q0 81 -47.5 116t-158.5 35h-101zM104 0v1460h596q215 0 332 -95t117 -269q0 -121 -73.5 -208t-205.5 -122q149 -40 226.5 -130.5
t77.5 -223.5q0 -197 -132 -304.5t-374 -107.5h-564z" />
    <glyph glyph-name="C" unicode="C" horiz-adv-x="1176" 
d="M1124 512v-18q0 -238 -136 -380.5t-361 -142.5q-271 0 -420.5 198t-149.5 560q0 366 150.5 563t427.5 197q229 0 362.5 -144.5t134.5 -392.5l-348 -2q-6 139 -43.5 201.5t-113.5 62.5q-92 0 -131 -107.5t-39 -377.5q0 -276 39.5 -379.5t136.5 -103.5q80 0 123 72.5
t51 220.5z" />
    <glyph glyph-name="D" unicode="D" horiz-adv-x="1223" 
d="M479 1194v-928h39q137 0 193.5 102t56.5 361q0 260 -56.5 362.5t-193.5 102.5h-39zM104 1460h439q304 0 463 -186.5t159 -544.5q0 -357 -159 -543t-463 -186h-439v1460z" />
    <glyph glyph-name="E" unicode="E" horiz-adv-x="1053" 
d="M104 0v1460h916v-278h-541v-285h361v-279h-361v-339h541v-279h-916z" />
    <glyph glyph-name="F" unicode="F" horiz-adv-x="1020" 
d="M104 0v1460h945v-278h-570v-285h361v-279h-361v-618h-375z" />
    <glyph glyph-name="G" unicode="G" horiz-adv-x="1208" 
d="M903 111q-63 -71 -142 -105.5t-177 -34.5q-252 0 -389.5 183.5t-137.5 523.5q0 402 144 606.5t426 204.5q236 0 374 -143t138 -388v-20h-355q0 139 -39 204.5t-120 65.5q-95 0 -132.5 -111t-37.5 -419q0 -251 39.5 -343.5t136.5 -92.5q80 0 125 61t45 170v6h-178v248h507
v-733h-157z" />
    <glyph glyph-name="H" unicode="H" horiz-adv-x="1233" 
d="M104 0v1460h375v-555h275v555h374v-1460h-374v610h-275v-610h-375z" />
    <glyph glyph-name="I" unicode="I" horiz-adv-x="588" 
d="M104 0v1460h379v-1460h-379z" />
    <glyph glyph-name="J" unicode="J" horiz-adv-x="682" 
d="M-12 0v289q33 -6 54.5 -8t39.5 -2q67 0 95 39.5t28 142.5v999h373v-1026q0 -253 -92.5 -349.5t-325.5 -96.5q-43 0 -86 3t-86 9z" />
    <glyph glyph-name="K" unicode="K" horiz-adv-x="1176" 
d="M104 0v1460h375v-592l363 592h370l-333 -481l321 -979h-371l-200 698l-150 -227v-471h-375z" />
    <glyph glyph-name="L" unicode="L" horiz-adv-x="948" 
d="M104 0v1460h375v-1181h496v-279h-871z" />
    <glyph glyph-name="M" unicode="M" horiz-adv-x="1561" 
d="M104 0v1460h514l166 -805l185 805h487v-1460h-346l20 1094l-276 -1094h-229l-236 1079v-1079h-285z" />
    <glyph glyph-name="N" unicode="N" horiz-adv-x="1235" 
d="M104 0v1460h314l411 -798v798h301v-1460h-301l-423 819v-819h-302z" />
    <glyph glyph-name="O" unicode="O" horiz-adv-x="1251" 
d="M627 248q96 0 133 93t37 390q0 298 -37 392t-133 94q-97 0 -134.5 -95.5t-37.5 -390.5q0 -294 37.5 -388.5t134.5 -94.5zM625 -27q-284 0 -426 189.5t-142 568.5q0 380 142 570t426 190t426.5 -190.5t142.5 -569.5t-142.5 -568.5t-426.5 -189.5z" />
    <glyph glyph-name="P" unicode="P" horiz-adv-x="1161" 
d="M479 1196v-344h45q131 0 187.5 40t56.5 132t-56.5 132t-187.5 40h-45zM104 0v1460h504q271 0 407 -109.5t136 -326.5q0 -207 -134.5 -321.5t-377.5 -114.5q-32 0 -70.5 2.5t-89.5 7.5v-598h-375z" />
    <glyph glyph-name="Q" unicode="Q" horiz-adv-x="1251" 
d="M627 248q96 0 133 93t37 390q0 298 -37 392t-133 94q-97 0 -134.5 -95.5t-37.5 -390.5q0 -294 37.5 -388.5t134.5 -94.5zM1198 -303q-9 -1 -21 -1.5t-34 -0.5q-160 0 -255 69.5t-138 217.5q-25 -5 -56 -7t-69 -2q-284 0 -426 189.5t-142 568.5q0 380 142 570t426 190
t426.5 -190.5t142.5 -569.5q0 -238 -54 -399t-161 -242q32 -53 81 -79.5t116 -26.5h22v-287z" />
    <glyph glyph-name="R" unicode="R" horiz-adv-x="1165" 
d="M481 1190v-320h62q127 0 180 37t53 123t-53 123t-180 37h-62zM104 0v1460h541q237 0 369.5 -106.5t132.5 -296.5q0 -130 -61 -218.5t-179 -129.5l246 -709h-373l-180 639h-119v-639h-377z" />
    <glyph glyph-name="S" unicode="S" horiz-adv-x="1100" 
d="M313 463q43 -106 105.5 -160.5t140.5 -54.5q73 0 114.5 34.5t41.5 96.5q0 53 -39.5 92.5t-192.5 110.5q-251 117 -333 213.5t-82 240.5q0 199 138.5 326t354.5 127q165 0 287.5 -86t179.5 -242l-291 -114q-32 86 -78.5 126.5t-111.5 40.5q-58 0 -93.5 -32.5t-35.5 -85.5
q0 -47 42 -84t185 -101q15 -6 46 -20q150 -64 229 -123q75 -57 115 -140.5t40 -183.5q0 -85 -32 -165.5t-93 -147.5q-71 -79 -172 -119.5t-227 -40.5q-198 0 -336 95.5t-207 279.5z" />
    <glyph glyph-name="T" unicode="T" horiz-adv-x="1038" 
d="M332 0v1182h-314v278h1002v-278h-313v-1182h-375z" />
    <glyph glyph-name="U" unicode="U" horiz-adv-x="1190" 
d="M469 1460v-1009q0 -107 37.5 -154t120.5 -47q82 0 118.5 46.5t36.5 154.5v1009h314v-1063q0 -198 -133 -312t-367 -114t-368 114t-134 312v1063h375z" />
    <glyph glyph-name="V" unicode="V" horiz-adv-x="1036" 
d="M705 0h-375l-367 1460h371l211 -1005l213 1005h315z" />
    <glyph glyph-name="W" unicode="W" horiz-adv-x="1587" 
d="M293 0l-318 1460h361l147 -866l183 866h327l176 -866l158 866h295l-328 -1460h-313l-174 940l-201 -940h-313z" />
    <glyph glyph-name="X" unicode="X" horiz-adv-x="1075" 
d="M-37 0l402 727l-359 733h404l165 -383l177 383h342l-369 -667l393 -793h-407l-189 440l-209 -440h-350z" />
    <glyph glyph-name="Y" unicode="Y" horiz-adv-x="995" 
d="M293 0v573l-361 887h392l184 -569l237 569h330l-409 -864v-596h-373z" />
    <glyph glyph-name="Z" unicode="Z" 
d="M14 0v201l533 981h-465v278h922v-192l-529 -989h529v-279h-990z" />
    <glyph glyph-name="bracketleft" unicode="[" horiz-adv-x="541" 
d="M104 1460h447v-190h-191v-1274h191v-186h-447v1650z" />
    <glyph glyph-name="backslash" unicode="\" horiz-adv-x="569" 
d="M145 1489l471 -1677h-192l-471 1677h192z" />
    <glyph glyph-name="bracketright" unicode="]" horiz-adv-x="541" 
d="M436 -190h-446v186h190v1274h-190v190h446v-1650z" />
    <glyph glyph-name="asciicircum" unicode="^" horiz-adv-x="2048" 
d="M1192 1462l442 -565h-303l-307 309l-309 -309h-303l442 565h338z" />
    <glyph glyph-name="underscore" unicode="_" 
d="M1024 -201v-282h-1024v282h1024z" />
    <glyph glyph-name="grave" unicode="`" 
d="M207 1534h287l192 -371h-154z" />
    <glyph glyph-name="a" unicode="a" horiz-adv-x="977" 
d="M575 100q-63 -65 -121.5 -94t-125.5 -29q-134 0 -214.5 83t-80.5 221q0 179 135 275.5t401 107.5v55q0 67 -19.5 97t-64.5 30q-48 0 -74 -33.5t-32 -103.5l-295 57q29 142 134 214.5t282 72.5q130 0 222 -41.5t142 -122.5q20 -34 28.5 -96.5t8.5 -200.5v-467
q0 -42 7 -72.5t22 -52.5h-344zM563 262v234q-93 0 -142.5 -44.5t-49.5 -127.5q0 -60 22.5 -90.5t67.5 -30.5q29 0 55 15t47 44z" />
    <glyph glyph-name="b" unicode="b" horiz-adv-x="1014" 
d="M418 784v-501q0 -53 24 -79t74 -26q57 0 77.5 48.5t20.5 256.5v27q0 229 -19.5 281.5t-72.5 52.5q-24 0 -50 -15t-54 -45zM276 0h-190v1446h332v-516q42 54 94.5 82t112.5 28q162 0 251 -130t89 -369q0 -268 -94 -410.5t-271 -142.5q-85 0 -146.5 38.5t-117.5 127.5z" />
    <glyph glyph-name="c" unicode="c" horiz-adv-x="930" 
d="M619 635q-4 105 -28 152t-73 47q-64 0 -91.5 -71t-27.5 -241q0 -188 26.5 -257.5t92.5 -69.5q61 0 92 50.5t31 147.5l256 -33q-26 -195 -125 -290t-278 -95q-206 0 -326.5 143.5t-120.5 389.5t127 395.5t336 149.5q186 0 285.5 -103t107.5 -303z" />
    <glyph glyph-name="d" unicode="d" horiz-adv-x="1014" 
d="M598 784q-28 30 -54 45t-50 15q-55 0 -75 -55t-20 -283t20 -283t75 -55q24 0 50 15t54 44v557zM604 0v90q-38 -52 -88 -77t-115 -25q-166 0 -259 145.5t-93 407.5q0 239 89 369t251 130q58 0 110.5 -27t98.5 -81v514h332v-1446h-326z" />
    <glyph glyph-name="e" unicode="e" horiz-adv-x="973" 
d="M373 444q0 -118 39 -183.5t110 -65.5q56 0 102.5 38t71.5 105l226 -82q-60 -137 -164.5 -209t-245.5 -72q-217 0 -341 145.5t-124 399.5q0 247 122.5 390t332.5 143q204 0 316 -138.5t112 -392.5q0 -25 -0.5 -42t-1.5 -35zM371 647h247v17q0 86 -31.5 132t-90.5 46
q-60 0 -92.5 -47t-32.5 -133v-15z" />
    <glyph glyph-name="f" unicode="f" horiz-adv-x="659" 
d="M147 0v815h-137v213h137v146q0 142 80.5 219t229.5 77q50 0 99 -3.5t95 -10.5v-242h-59q-66 0 -89.5 -24.5t-23.5 -95.5v-66h172v-213h-172v-815h-332z" />
    <glyph glyph-name="g" unicode="g" horiz-adv-x="985" 
d="M477 -127q113 0 166 21.5t53 66.5q0 47 -58.5 71.5t-170.5 24.5q-100 0 -152.5 -24.5t-52.5 -71.5q0 -44 53.5 -66t161.5 -22zM475 578q53 0 82 41.5t29 117.5q0 77 -29.5 120.5t-81.5 43.5t-81 -43.5t-29 -120.5q0 -76 29 -117.5t81 -41.5zM188 96q-69 31 -103 71
t-34 91q0 62 49 114.5t142 90.5q-101 66 -142 127t-41 143q0 138 115.5 228t298.5 90q83 0 153.5 -17.5t129.5 -52.5q55 61 121 94.5t138 36.5l1 -254q-24 22 -51 32.5t-60 10.5q-17 0 -29 -4t-22 -12q19 -40 29 -78.5t10 -73.5q0 -142 -113.5 -229.5t-298.5 -87.5
q-22 0 -83 9q-12 2 -19 3q-19 -11 -28 -24.5t-9 -30.5q0 -61 163 -64q50 -1 79 -2q203 -15 299 -85.5t96 -203.5q0 -155 -137.5 -239t-392.5 -84q-218 0 -333.5 56t-115.5 161q0 69 50 118.5t138 65.5z" />
    <glyph glyph-name="h" unicode="h" horiz-adv-x="1006" 
d="M86 0v1446h332v-543q72 79 140 114.5t144 35.5q112 0 166 -66t54 -201v-786h-332v700q0 63 -14.5 87t-49.5 24q-25 0 -51.5 -16t-56.5 -50v-745h-332z" />
    <glyph glyph-name="i" unicode="i" horiz-adv-x="502" 
d="M86 1151v295h332v-295h-332zM86 0v1028h332v-1028h-332z" />
    <glyph glyph-name="j" unicode="j" horiz-adv-x="522" 
d="M109 1028h331v-962q0 -184 -91 -276.5t-271 -92.5q-20 0 -43.5 1.5t-50.5 4.5v258h12q64 0 88.5 21t24.5 77v969zM109 1151v295h331v-295h-331z" />
    <glyph glyph-name="k" unicode="k" horiz-adv-x="1006" 
d="M86 0v1446h332v-748l262 330h313l-270 -309l278 -719h-352l-149 473l-82 -96v-377h-332z" />
    <glyph glyph-name="l" unicode="l" horiz-adv-x="502" 
d="M86 0v1446h332v-1446h-332z" />
    <glyph glyph-name="m" unicode="m" horiz-adv-x="1497" 
d="M86 0v1028h332v-125q72 78 139.5 114t142.5 36q83 0 138.5 -42.5t70.5 -117.5q72 82 142 121t147 39q111 0 164 -65t53 -202v-786h-328v700q0 62 -14.5 86.5t-48.5 24.5q-25 0 -51.5 -16t-57.5 -50v-745h-327v700q0 63 -14 87t-48 24q-25 0 -51.5 -16t-56.5 -50v-745
h-332z" />
    <glyph glyph-name="n" unicode="n" horiz-adv-x="1006" 
d="M86 0v1028h332v-125q72 79 140 114.5t144 35.5q112 0 166 -66t54 -201v-786h-332v700q0 63 -14.5 87t-49.5 24q-25 0 -51.5 -16t-56.5 -50v-745h-332z" />
    <glyph glyph-name="o" unicode="o" 
d="M397 514q0 -181 26 -250t89 -69t89 67.5t26 251.5t-26 252t-89 68q-62 0 -88.5 -71.5t-26.5 -248.5zM512 -25q-217 0 -341 144t-124 395q0 253 124 396t341 143t341 -143t124 -396q0 -251 -124 -395t-341 -144z" />
    <glyph glyph-name="p" unicode="p" horiz-adv-x="1014" 
d="M418 797v-549q28 -30 54 -45t50 -15q53 0 72.5 52.5t19.5 281.5t-19.5 281.5t-72.5 52.5q-24 0 -50 -15t-54 -44zM86 1028h324v-94q48 59 102 89t113 30q162 0 251 -131.5t89 -370.5q0 -263 -92.5 -409t-258.5 -146q-59 0 -107.5 24.5t-88.5 73.5v-397h-332v1331z" />
    <glyph glyph-name="q" unicode="q" horiz-adv-x="1014" 
d="M598 244v504q0 53 -24 78.5t-74 25.5q-59 0 -80 -51.5t-21 -282.5q0 -224 20 -279t75 -55q24 0 50 15t54 45zM737 1028h193v-1331h-332v401q-42 -54 -95.5 -82t-113.5 -28q-162 0 -251 131t-89 370q0 268 95 410.5t272 142.5q83 0 144 -38.5t118 -129.5z" />
    <glyph glyph-name="r" unicode="r" horiz-adv-x="739" 
d="M86 0v1028h332v-141q44 83 120.5 123.5t190.5 40.5v-334q-38 13 -72 19.5t-65 6.5q-61 0 -103.5 -19.5t-70.5 -61.5v-662h-332z" />
    <glyph glyph-name="s" unicode="s" horiz-adv-x="909" 
d="M268 356q26 -72 71 -110.5t103 -38.5q50 0 79.5 21t29.5 57q0 59 -149 114q-61 22 -97 37q-142 59 -198 124.5t-56 164.5q0 148 106 238t281 90q169 0 267 -66.5t141 -208.5l-236 -63q-20 66 -58.5 100.5t-92.5 34.5q-44 0 -71.5 -20t-27.5 -52q0 -27 22.5 -47t100.5 -51
q249 -99 313 -168.5t64 -181.5q0 -158 -116 -255.5t-308 -97.5q-152 0 -259 76t-159 221z" />
    <glyph glyph-name="t" unicode="t" horiz-adv-x="692" 
d="M655 4q-75 -14 -131 -21.5t-94 -7.5q-147 0 -216 70.5t-69 220.5v549h-159v213h159v361h332v-361h178v-213h-178v-481q0 -57 16.5 -75.5t63.5 -18.5q26 0 50 2.5t48 7.5v-246z" />
    <glyph glyph-name="u" unicode="u" horiz-adv-x="1006" 
d="M920 1028v-1028h-332v127q-73 -79 -141.5 -115.5t-145.5 -36.5q-110 0 -163.5 66.5t-53.5 202.5v784h332v-698q0 -64 14.5 -88.5t48.5 -24.5q25 0 51.5 16t57.5 50v745h332z" />
    <glyph glyph-name="v" unicode="v" horiz-adv-x="815" 
d="M543 0h-254l-309 1028h348l129 -575l127 575h268z" />
    <glyph glyph-name="w" unicode="w" horiz-adv-x="1251" 
d="M227 0l-233 1028h330l100 -530l108 530h285l92 -530l123 530h242l-266 -1028h-267l-118 592l-134 -592h-262z" />
    <glyph glyph-name="x" unicode="x" horiz-adv-x="872" 
d="M-41 0l322 489l-304 539h369l125 -287l139 287h301l-313 -473l313 -555h-366l-133 291l-150 -291h-303z" />
    <glyph glyph-name="y" unicode="y" horiz-adv-x="807" 
d="M-16 -57q22 -7 44 -10t46 -3q90 0 134 31.5t44 95.5q0 25 -7.5 67.5t-21.5 90.5l-235 813h338l120 -584l142 584h256l-332 -1026q-38 -154 -143.5 -228.5t-286.5 -74.5q-39 0 -59.5 1t-38.5 3v240z" />
    <glyph glyph-name="z" unicode="z" horiz-adv-x="834" 
d="M795 1028v-205l-379 -610h379v-213h-779v172l412 643h-346v213h713z" />
    <glyph glyph-name="braceleft" unicode="{" 
d="M905 1192q-8 0 -22.5 1t-20.5 1q-87 0 -117 -30t-30 -128v-239q0 -134 -47 -189.5t-170 -77.5q124 -23 170.5 -77.5t46.5 -186.5v-241q0 -96 29.5 -126t115.5 -30q7 0 22 1t23 1v-285h-80q-139 0 -211.5 10.5t-119.5 34.5q-60 30 -84.5 84.5t-24.5 186.5v258
q0 127 -46.5 179t-158.5 52q-5 0 -16.5 -1t-18.5 -1v283q7 0 18.5 -1t16.5 -1q112 0 158.5 52t46.5 179v258q0 133 24.5 188t84.5 85q48 24 120.5 34.5t210.5 10.5h80v-285z" />
    <glyph glyph-name="bar" unicode="|" 
d="M653 1565v-2048h-280v2048h280z" />
    <glyph glyph-name="braceright" unicode="}" 
d="M641 1159v-258q0 -127 46.5 -179t158.5 -52q5 0 16.5 1t18.5 1v-283q-7 0 -18.5 1t-16.5 1q-112 0 -158.5 -52t-46.5 -179v-258q0 -130 -25 -186t-86 -87q-45 -23 -115 -33t-200 -10h-94v283q9 0 23 -1t20 -1q87 0 117 30t30 128v241q0 132 46.5 186.5t170.5 77.5
q-123 22 -170 77t-47 188v241q0 98 -30 128t-117 30q-6 0 -20 -1t-23 -1v285h80q138 0 210 -10.5t119 -34.5q61 -31 86 -87t25 -186z" />
    <glyph glyph-name="asciitilde" unicode="~" horiz-adv-x="1706" 
d="M1530 543q-102 -69 -192 -101t-179 -32q-54 0 -111.5 11.5t-154.5 45.5q-124 42 -194.5 56t-137.5 14q-84 0 -176 -38t-207 -120v299q119 75 216.5 109t191.5 34q58 0 123 -12t155 -41q22 -7 64 -22q152 -54 235 -54q86 0 175 36.5t192 113.5v-299z" />
    <glyph glyph-name="Adieresis" unicode="&#xc4;" horiz-adv-x="1075" 
d="M395 553h226l-109 588zM-35 0l346 1460h482l317 -1460h-379l-55 295h-340l-62 -295h-309zM604 1648v271h252v-271h-252zM242 1648v271h250v-271h-250z" />
    <glyph glyph-name="Aring" unicode="&#xc5;" horiz-adv-x="1075" 
d="M291 1798q0 114 78 192t192 78t193.5 -78.5t79.5 -191.5q0 -114 -79.5 -193t-193.5 -79t-192 78.5t-78 193.5zM449 1798q0 -48 33 -81.5t81 -33.5t81.5 34t33.5 81q0 48 -33.5 81.5t-81.5 33.5q-47 0 -80.5 -33.5t-33.5 -81.5zM395 553h226l-109 588zM-35 0l346 1460h482
l317 -1460h-379l-55 295h-340l-62 -295h-309z" />
    <glyph glyph-name="Ccedilla" unicode="&#xc7;" horiz-adv-x="1176" 
d="M1124 512v-18q0 -238 -136 -380.5t-361 -142.5q-271 0 -420.5 198t-149.5 560q0 366 150.5 563t427.5 197q229 0 362.5 -144.5t134.5 -392.5l-348 -2q-6 139 -43.5 201.5t-113.5 62.5q-92 0 -131 -107.5t-39 -377.5q0 -276 39.5 -379.5t136.5 -103.5q80 0 123 72.5
t51 220.5zM385 -438v137q80 -22 149.5 -33.5t121.5 -11.5q43 0 64.5 17.5t21.5 54.5q0 32 -28.5 47.5t-90.5 15.5q-21 0 -33 -0.5t-22 -1.5v213h114v-84h19q111 0 170 -49.5t59 -142.5q0 -100 -66 -154.5t-188 -54.5q-58 0 -130 11.5t-161 35.5z" />
    <glyph glyph-name="Eacute" unicode="&#xc9;" horiz-adv-x="1053" 
d="M104 0v1460h916v-278h-541v-285h361v-279h-361v-339h541v-279h-916zM889 1970l-325 -371h-154l192 371h287z" />
    <glyph glyph-name="Ntilde" unicode="&#xd1;" horiz-adv-x="1235" 
d="M104 0v1460h314l411 -798v798h301v-1460h-301l-423 819v-819h-302zM969 1925q-30 -132 -82.5 -193t-136.5 -61q-19 0 -37.5 3t-38.5 9l-92 27q-23 6 -40 9t-28 3q-33 0 -54.5 -18.5t-35.5 -59.5h-119q28 126 80.5 186t134.5 60q19 0 42 -3.5t48 -10.5l95 -29q12 -4 26 -6
t31 -2q33 0 55 22t33 64h119z" />
    <glyph glyph-name="Odieresis" unicode="&#xd6;" horiz-adv-x="1251" 
d="M627 248q96 0 133 93t37 390q0 298 -37 392t-133 94q-97 0 -134.5 -95.5t-37.5 -390.5q0 -294 37.5 -388.5t134.5 -94.5zM625 -27q-284 0 -426 189.5t-142 568.5q0 380 142 570t426 190t426.5 -190.5t142.5 -569.5t-142.5 -568.5t-426.5 -189.5zM682 1648v271h252v-271
h-252zM320 1648v271h250v-271h-250z" />
    <glyph glyph-name="Udieresis" unicode="&#xdc;" horiz-adv-x="1190" 
d="M469 1460v-1009q0 -107 37.5 -154t120.5 -47q82 0 118.5 46.5t36.5 154.5v1009h314v-1063q0 -198 -133 -312t-367 -114t-368 114t-134 312v1063h375zM676 1648v271h252v-271h-252zM314 1648v271h250v-271h-250z" />
    <glyph glyph-name="aacute" unicode="&#xe1;" horiz-adv-x="977" 
d="M575 100q-63 -65 -121.5 -94t-125.5 -29q-134 0 -214.5 83t-80.5 221q0 179 135 275.5t401 107.5v55q0 67 -19.5 97t-64.5 30q-48 0 -74 -33.5t-32 -103.5l-295 57q29 142 134 214.5t282 72.5q130 0 222 -41.5t142 -122.5q20 -34 28.5 -96.5t8.5 -200.5v-467
q0 -42 7 -72.5t22 -52.5h-344zM563 262v234q-93 0 -142.5 -44.5t-49.5 -127.5q0 -60 22.5 -90.5t67.5 -30.5q29 0 55 15t47 44zM794 1534l-325 -371h-154l192 371h287z" />
    <glyph glyph-name="agrave" unicode="&#xe0;" horiz-adv-x="977" 
d="M575 100q-63 -65 -121.5 -94t-125.5 -29q-134 0 -214.5 83t-80.5 221q0 179 135 275.5t401 107.5v55q0 67 -19.5 97t-64.5 30q-48 0 -74 -33.5t-32 -103.5l-295 57q29 142 134 214.5t282 72.5q130 0 222 -41.5t142 -122.5q20 -34 28.5 -96.5t8.5 -200.5v-467
q0 -42 7 -72.5t22 -52.5h-344zM563 262v234q-93 0 -142.5 -44.5t-49.5 -127.5q0 -60 22.5 -90.5t67.5 -30.5q29 0 55 15t47 44zM184 1534h287l192 -371h-154z" />
    <glyph glyph-name="acircumflex" unicode="&#xe2;" horiz-adv-x="977" 
d="M575 100q-63 -65 -121.5 -94t-125.5 -29q-134 0 -214.5 83t-80.5 221q0 179 135 275.5t401 107.5v55q0 67 -19.5 97t-64.5 30q-48 0 -74 -33.5t-32 -103.5l-295 57q29 142 134 214.5t282 72.5q130 0 222 -41.5t142 -122.5q20 -34 28.5 -96.5t8.5 -200.5v-467
q0 -42 7 -72.5t22 -52.5h-344zM563 262v234q-93 0 -142.5 -44.5t-49.5 -127.5q0 -60 22.5 -90.5t67.5 -30.5q29 0 55 15t47 44zM167 1163l193 371h256l192 -371h-153l-166 199l-168 -199h-154z" />
    <glyph glyph-name="adieresis" unicode="&#xe4;" horiz-adv-x="977" 
d="M575 100q-63 -65 -121.5 -94t-125.5 -29q-134 0 -214.5 83t-80.5 221q0 179 135 275.5t401 107.5v55q0 67 -19.5 97t-64.5 30q-48 0 -74 -33.5t-32 -103.5l-295 57q29 142 134 214.5t282 72.5q130 0 222 -41.5t142 -122.5q20 -34 28.5 -96.5t8.5 -200.5v-467
q0 -42 7 -72.5t22 -52.5h-344zM563 262v234q-93 0 -142.5 -44.5t-49.5 -127.5q0 -60 22.5 -90.5t67.5 -30.5q29 0 55 15t47 44zM544 1212v271h252v-271h-252zM182 1212v271h250v-271h-250z" />
    <glyph glyph-name="atilde" unicode="&#xe3;" horiz-adv-x="977" 
d="M575 100q-63 -65 -121.5 -94t-125.5 -29q-134 0 -214.5 83t-80.5 221q0 179 135 275.5t401 107.5v55q0 67 -19.5 97t-64.5 30q-48 0 -74 -33.5t-32 -103.5l-295 57q29 142 134 214.5t282 72.5q130 0 222 -41.5t142 -122.5q20 -34 28.5 -96.5t8.5 -200.5v-467
q0 -42 7 -72.5t22 -52.5h-344zM563 262v234q-93 0 -142.5 -44.5t-49.5 -127.5q0 -60 22.5 -90.5t67.5 -30.5q29 0 55 15t47 44zM821 1489q-30 -132 -82.5 -193t-136.5 -61q-19 0 -37.5 3t-38.5 9l-92 27q-23 6 -40 9t-28 3q-33 0 -54.5 -18.5t-35.5 -59.5h-119
q28 126 80.5 186t134.5 60q19 0 42 -3.5t48 -10.5l95 -29q12 -4 26 -6t31 -2q33 0 55 22t33 64h119z" />
    <glyph glyph-name="aring" unicode="&#xe5;" horiz-adv-x="977" 
d="M389 1391q0 -49 33 -82t82 -33q47 0 80.5 33.5t33.5 81.5q0 47 -33.5 80.5t-80.5 33.5q-48 0 -81.5 -33.5t-33.5 -80.5zM231 1391q0 113 78.5 191.5t192.5 78.5t193 -78.5t79 -191.5q0 -114 -79.5 -193.5t-192.5 -79.5q-114 0 -192.5 79t-78.5 194zM575 100
q-63 -65 -121.5 -94t-125.5 -29q-134 0 -214.5 83t-80.5 221q0 179 135 275.5t401 107.5v55q0 67 -19.5 97t-64.5 30q-48 0 -74 -33.5t-32 -103.5l-295 57q29 142 134 214.5t282 72.5q130 0 222 -41.5t142 -122.5q20 -34 28.5 -96.5t8.5 -200.5v-467q0 -42 7 -72.5t22 -52.5
h-344zM563 262v234q-93 0 -142.5 -44.5t-49.5 -127.5q0 -60 22.5 -90.5t67.5 -30.5q29 0 55 15t47 44z" />
    <glyph glyph-name="ccedilla" unicode="&#xe7;" horiz-adv-x="930" 
d="M619 635q-4 105 -28 152t-73 47q-64 0 -91.5 -71t-27.5 -241q0 -188 26.5 -257.5t92.5 -69.5q61 0 92 50.5t31 147.5l256 -33q-26 -195 -125 -290t-278 -95q-206 0 -326.5 143.5t-120.5 389.5t127 395.5t336 149.5q186 0 285.5 -103t107.5 -303zM264 -438v137
q80 -22 149.5 -33.5t121.5 -11.5q43 0 64.5 17.5t21.5 54.5q0 32 -28.5 47.5t-90.5 15.5q-21 0 -33 -0.5t-22 -1.5v213h114v-84h19q111 0 170 -49.5t59 -142.5q0 -100 -66 -154.5t-188 -54.5q-58 0 -130 11.5t-161 35.5z" />
    <glyph glyph-name="eacute" unicode="&#xe9;" horiz-adv-x="973" 
d="M373 444q0 -118 39 -183.5t110 -65.5q56 0 102.5 38t71.5 105l226 -82q-60 -137 -164.5 -209t-245.5 -72q-217 0 -341 145.5t-124 399.5q0 247 122.5 390t332.5 143q204 0 316 -138.5t112 -392.5q0 -25 -0.5 -42t-1.5 -35zM371 647h247v17q0 86 -31.5 132t-90.5 46
q-60 0 -92.5 -47t-32.5 -133v-15zM805 1534l-325 -371h-154l192 371h287z" />
    <glyph glyph-name="egrave" unicode="&#xe8;" horiz-adv-x="973" 
d="M373 444q0 -118 39 -183.5t110 -65.5q56 0 102.5 38t71.5 105l226 -82q-60 -137 -164.5 -209t-245.5 -72q-217 0 -341 145.5t-124 399.5q0 247 122.5 390t332.5 143q204 0 316 -138.5t112 -392.5q0 -25 -0.5 -42t-1.5 -35zM371 647h247v17q0 86 -31.5 132t-90.5 46
q-60 0 -92.5 -47t-32.5 -133v-15zM195 1534h287l192 -371h-154z" />
    <glyph glyph-name="ecircumflex" unicode="&#xea;" horiz-adv-x="973" 
d="M373 444q0 -118 39 -183.5t110 -65.5q56 0 102.5 38t71.5 105l226 -82q-60 -137 -164.5 -209t-245.5 -72q-217 0 -341 145.5t-124 399.5q0 247 122.5 390t332.5 143q204 0 316 -138.5t112 -392.5q0 -25 -0.5 -42t-1.5 -35zM371 647h247v17q0 86 -31.5 132t-90.5 46
q-60 0 -92.5 -47t-32.5 -133v-15zM178 1163l193 371h256l192 -371h-153l-166 199l-168 -199h-154z" />
    <glyph glyph-name="edieresis" unicode="&#xeb;" horiz-adv-x="973" 
d="M373 444q0 -118 39 -183.5t110 -65.5q56 0 102.5 38t71.5 105l226 -82q-60 -137 -164.5 -209t-245.5 -72q-217 0 -341 145.5t-124 399.5q0 247 122.5 390t332.5 143q204 0 316 -138.5t112 -392.5q0 -25 -0.5 -42t-1.5 -35zM371 647h247v17q0 86 -31.5 132t-90.5 46
q-60 0 -92.5 -47t-32.5 -133v-15zM555 1212v271h252v-271h-252zM193 1212v271h250v-271h-250z" />
    <glyph glyph-name="iacute" unicode="&#xed;" horiz-adv-x="502" 
d="M86 0v1028h332v-1028h-332zM557 1534l-325 -371h-154l192 371h287z" />
    <glyph glyph-name="igrave" unicode="&#xec;" horiz-adv-x="502" 
d="M86 0v1028h332v-1028h-332zM-53 1534h287l192 -371h-154z" />
    <glyph glyph-name="icircumflex" unicode="&#xee;" horiz-adv-x="502" 
d="M86 0v1028h332v-1028h-332zM-70 1163l193 371h256l192 -371h-153l-166 199l-168 -199h-154z" />
    <glyph glyph-name="idieresis" unicode="&#xef;" horiz-adv-x="502" 
d="M86 0v1028h332v-1028h-332zM307 1212v271h252v-271h-252zM-55 1212v271h250v-271h-250z" />
    <glyph glyph-name="ntilde" unicode="&#xf1;" horiz-adv-x="1006" 
d="M86 0v1028h332v-125q72 79 140 114.5t144 35.5q112 0 166 -66t54 -201v-786h-332v700q0 63 -14.5 87t-49.5 24q-25 0 -51.5 -16t-56.5 -50v-745h-332zM836 1489q-30 -132 -82.5 -193t-136.5 -61q-19 0 -37.5 3t-38.5 9l-92 27q-23 6 -40 9t-28 3q-33 0 -54.5 -18.5
t-35.5 -59.5h-119q28 126 80.5 186t134.5 60q19 0 42 -3.5t48 -10.5l95 -29q12 -4 26 -6t31 -2q33 0 55 22t33 64h119z" />
    <glyph glyph-name="oacute" unicode="&#xf3;" 
d="M397 514q0 -181 26 -250t89 -69t89 67.5t26 251.5t-26 252t-89 68q-62 0 -88.5 -71.5t-26.5 -248.5zM512 -25q-217 0 -341 144t-124 395q0 253 124 396t341 143t341 -143t124 -396q0 -251 -124 -395t-341 -144zM817 1534l-325 -371h-154l192 371h287z" />
    <glyph glyph-name="ograve" unicode="&#xf2;" 
d="M397 514q0 -181 26 -250t89 -69t89 67.5t26 251.5t-26 252t-89 68q-62 0 -88.5 -71.5t-26.5 -248.5zM512 -25q-217 0 -341 144t-124 395q0 253 124 396t341 143t341 -143t124 -396q0 -251 -124 -395t-341 -144zM207 1534h287l192 -371h-154z" />
    <glyph glyph-name="ocircumflex" unicode="&#xf4;" 
d="M397 514q0 -181 26 -250t89 -69t89 67.5t26 251.5t-26 252t-89 68q-62 0 -88.5 -71.5t-26.5 -248.5zM512 -25q-217 0 -341 144t-124 395q0 253 124 396t341 143t341 -143t124 -396q0 -251 -124 -395t-341 -144zM190 1163l193 371h256l192 -371h-153l-166 199l-168 -199
h-154z" />
    <glyph glyph-name="odieresis" unicode="&#xf6;" 
d="M397 514q0 -181 26 -250t89 -69t89 67.5t26 251.5t-26 252t-89 68q-62 0 -88.5 -71.5t-26.5 -248.5zM512 -25q-217 0 -341 144t-124 395q0 253 124 396t341 143t341 -143t124 -396q0 -251 -124 -395t-341 -144zM567 1212v271h252v-271h-252zM205 1212v271h250v-271h-250z
" />
    <glyph glyph-name="otilde" unicode="&#xf5;" 
d="M397 514q0 -181 26 -250t89 -69t89 67.5t26 251.5t-26 252t-89 68q-62 0 -88.5 -71.5t-26.5 -248.5zM512 -25q-217 0 -341 144t-124 395q0 253 124 396t341 143t341 -143t124 -396q0 -251 -124 -395t-341 -144zM844 1489q-30 -132 -82.5 -193t-136.5 -61q-19 0 -37.5 3
t-38.5 9l-92 27q-23 6 -40 9t-28 3q-33 0 -54.5 -18.5t-35.5 -59.5h-119q28 126 80.5 186t134.5 60q19 0 42 -3.5t48 -10.5l95 -29q12 -4 26 -6t31 -2q33 0 55 22t33 64h119z" />
    <glyph glyph-name="uacute" unicode="&#xfa;" horiz-adv-x="1006" 
d="M920 1028v-1028h-332v127q-73 -79 -141.5 -115.5t-145.5 -36.5q-110 0 -163.5 66.5t-53.5 202.5v784h332v-698q0 -64 14.5 -88.5t48.5 -24.5q25 0 51.5 16t57.5 50v745h332zM809 1534l-325 -371h-154l192 371h287z" />
    <glyph glyph-name="ugrave" unicode="&#xf9;" horiz-adv-x="1006" 
d="M920 1028v-1028h-332v127q-73 -79 -141.5 -115.5t-145.5 -36.5q-110 0 -163.5 66.5t-53.5 202.5v784h332v-698q0 -64 14.5 -88.5t48.5 -24.5q25 0 51.5 16t57.5 50v745h332zM199 1534h287l192 -371h-154z" />
    <glyph glyph-name="ucircumflex" unicode="&#xfb;" horiz-adv-x="1006" 
d="M920 1028v-1028h-332v127q-73 -79 -141.5 -115.5t-145.5 -36.5q-110 0 -163.5 66.5t-53.5 202.5v784h332v-698q0 -64 14.5 -88.5t48.5 -24.5q25 0 51.5 16t57.5 50v745h332zM182 1163l193 371h256l192 -371h-153l-166 199l-168 -199h-154z" />
    <glyph glyph-name="udieresis" unicode="&#xfc;" horiz-adv-x="1006" 
d="M920 1028v-1028h-332v127q-73 -79 -141.5 -115.5t-145.5 -36.5q-110 0 -163.5 66.5t-53.5 202.5v784h332v-698q0 -64 14.5 -88.5t48.5 -24.5q25 0 51.5 16t57.5 50v745h332zM559 1212v271h252v-271h-252zM197 1212v271h250v-271h-250z" />
    <glyph glyph-name="dagger" unicode="&#x2020;" 
d="M102 1139l349 -92l-97 413h316l-97 -413l349 92v-303l-349 96q21 -108 44.5 -191t50.5 -143q-36 -110 -58.5 -328t-32.5 -538h-133q-7 310 -29 525.5t-59 340.5q27 60 50.5 143t44.5 191l-349 -96v303z" />
    <glyph glyph-name="degree" unicode="&#xb0;" horiz-adv-x="674" 
d="M489 1151q0 62 -45 107t-108 45q-62 0 -106 -44.5t-44 -107.5q0 -64 44 -109t108 -45q62 0 106.5 46t44.5 108zM338 1473q134 0 227.5 -94.5t93.5 -229.5q0 -132 -94.5 -227t-228.5 -95t-228 93.5t-94 228.5q0 134 95.5 229t228.5 95z" />
    <glyph glyph-name="cent" unicode="&#xa2;" horiz-adv-x="1147" 
d="M530 289l142 563q-11 4 -22 6t-23 2q-61 0 -89 -77t-28 -246q0 -83 5 -141.5t15 -106.5zM735 659q0 21 -2 42.5t-10 62.5l-133 -537q12 -4 25 -6t26 -2q54 0 84.5 51.5t30.5 145.5l258 -31q-25 -190 -124.5 -287.5t-268.5 -97.5q-26 0 -45 1t-37 3l-50 -209l-79 15
l51 213q-146 57 -221.5 184.5t-75.5 316.5q0 256 126.5 404.5t344.5 148.5q20 0 40 -1.5t42 -3.5l35 142l82 -18l-37 -147q109 -52 163 -145t58 -234z" />
    <glyph glyph-name="sterling" unicode="&#xa3;" horiz-adv-x="1147" 
d="M68 211q138 48 201 107.5t63 142.5q0 40 -18 100t-56 148h-190v114h149q-26 75 -38.5 134t-12.5 106q0 187 130.5 301.5t346.5 114.5q169 0 281 -87t172 -266l-297 -90q-22 92 -64.5 138.5t-105.5 46.5q-53 0 -87 -35t-34 -88q0 -37 55 -189q20 -55 31 -86h270v-114h-249
q3 -26 4.5 -44.5t1.5 -31.5q0 -95 -40 -177t-126 -161q34 5 57 7.5t41 2.5q43 0 116.5 -11t104.5 -11q62 0 120 15t114 46l122 -287q-81 -41 -165 -61.5t-174 -20.5q-110 0 -256 35t-181 35q-57 0 -110.5 -15t-106.5 -46z" />
    <glyph glyph-name="section" unicode="&#xa7;" 
d="M735 274q42 -55 61 -106t19 -105q0 -140 -86 -222.5t-235 -82.5q-105 0 -195.5 51t-175.5 158l188 148q65 -81 98 -105t68 -24q38 0 61 21.5t23 55.5q0 29 -26 69.5t-80 96.5l-199 203q-109 111 -145.5 182.5t-36.5 153.5q0 95 54 160.5t153 89.5q-37 57 -54.5 107
t-17.5 98q0 120 87 193t230 73q103 0 185 -46t157 -147l-184 -137q-46 57 -83.5 84t-70.5 27q-31 0 -49 -18t-18 -50q0 -44 134 -181l7 -7l152 -154q123 -127 156.5 -191.5t33.5 -136.5q0 -98 -55 -165.5t-156 -92.5zM621 453q30 0 51.5 18.5t21.5 44.5q0 28 -26 67t-90 107
q-78 81 -124.5 117.5t-72.5 36.5q-29 0 -48.5 -19.5t-19.5 -48.5q0 -27 27 -67.5t94 -110.5q76 -79 118.5 -112t68.5 -33z" />
    <glyph glyph-name="bullet" unicode="&#x2022;" horiz-adv-x="1208" 
d="M307 762q0 123 87 209t210 86q122 0 208.5 -86.5t86.5 -208.5t-87.5 -209.5t-209.5 -87.5q-123 0 -209 87t-86 210z" />
    <glyph glyph-name="paragraph" unicode="&#xb6;" 
d="M1014 1337h-101v-1337h-202v1337h-140v-1337h-202v784q-163 8 -261 103t-98 243q0 157 106.5 253t282.5 96h615v-142z" />
    <glyph glyph-name="germandbls" unicode="&#xdf;" horiz-adv-x="1034" 
d="M86 0v1016q0 230 105.5 342t320.5 112q185 0 293 -93.5t108 -252.5q0 -110 -55.5 -181.5t-159.5 -94.5q141 -32 207 -130.5t66 -275.5q0 -233 -95 -337.5t-307 -104.5h-77v178h10q83 0 114 53.5t31 229.5q0 174 -31 227t-114 53h-10v179q67 6 91.5 44t24.5 152
q0 93 -23 134.5t-75 41.5q-56 0 -78 -43t-22 -168v-1081h-324z" />
    <glyph glyph-name="registered" unicode="&#xae;" horiz-adv-x="1706" 
d="M823 1006h-39v-193h54q58 0 88 25t30 73q0 49 -32 72t-101 23zM862 1165q174 0 265.5 -61t91.5 -178q0 -78 -43 -135t-121 -84l178 -355h-279l-145 312h-25v-312h-256v813h334zM1452 743q0 120 -45 229t-129 193q-87 87 -194.5 131.5t-229.5 44.5q-123 0 -230 -43.5
t-190 -128.5q-86 -87 -132 -197t-46 -229t45.5 -227.5t130.5 -193.5q86 -86 194 -131.5t228 -45.5q119 0 228.5 46t197.5 133q85 83 128.5 189.5t43.5 229.5zM852 1493q155 0 292.5 -56t244.5 -163q104 -105 160.5 -243t56.5 -290q0 -154 -55.5 -288.5t-161.5 -237.5
q-111 -108 -250 -166.5t-287 -58.5q-149 0 -284 57t-244 166q-108 107 -165 243t-57 285q0 151 57.5 289t166.5 248q103 105 238 160t288 55z" />
    <glyph glyph-name="copyright" unicode="&#xa9;" horiz-adv-x="1706" 
d="M987 883q-3 63 -38 99t-93 36q-73 0 -114.5 -71.5t-41.5 -201.5q0 -131 41 -196.5t123 -65.5q60 0 92 36.5t35 106.5l248 1q-6 -149 -109 -237.5t-272 -88.5q-195 0 -306.5 116t-111.5 320q0 200 111 323.5t289 123.5q176 0 278.5 -79.5t110.5 -221.5h-242zM1452 743
q0 120 -45 229t-129 193q-87 87 -194.5 131.5t-229.5 44.5q-123 0 -230 -43.5t-190 -128.5q-86 -87 -132 -197t-46 -229t45.5 -227.5t130.5 -193.5q86 -86 194 -131.5t228 -45.5q119 0 228.5 46t197.5 133q85 83 128.5 189.5t43.5 229.5zM852 1493q155 0 292.5 -56
t244.5 -163q104 -105 160.5 -243t56.5 -290q0 -154 -55.5 -288.5t-161.5 -237.5q-111 -108 -250 -166.5t-287 -58.5q-149 0 -284 57t-244 166q-108 107 -165 243t-57 285q0 151 57.5 289t166.5 248q103 105 238 160t288 55z" />
    <glyph glyph-name="trademark" unicode="&#x2122;" horiz-adv-x="1706" 
d="M1044 1468l99 -266l98 266h256v-559h-182v367l-137 -367h-70l-137 367v-367h-183v559h256zM690 1468v-151h-162v-408h-202v408h-162v151h526z" />
    <glyph glyph-name="acute" unicode="&#xb4;" 
d="M817 1534l-325 -371h-154l192 371h287z" />
    <glyph glyph-name="dieresis" unicode="&#xa8;" 
d="M567 1212v271h252v-271h-252zM205 1212v271h250v-271h-250z" />
    <glyph glyph-name="notequal" unicode="&#x2260;" horiz-adv-x="1706" 
d="M1384 1116l-112 -139h180v-260h-358l-172 -211h530v-262h-704l-242 -299l-199 159l113 140h-166v262h340l170 211h-510v260h690l244 301z" />
    <glyph glyph-name="AE" unicode="&#xc6;" horiz-adv-x="1593" 
d="M664 0v295h-324l-94 -295h-293l506 1460h1102v-278h-541v-285h360v-279h-360v-339h541v-279h-897zM424 553h240v719z" />
    <glyph glyph-name="Oslash" unicode="&#xd8;" horiz-adv-x="1251" 
d="M798 851l-335 -426q8 -89 52 -140.5t112 -51.5q97 0 135.5 95t38.5 366q0 57 -0.5 90.5t-2.5 66.5zM453 603l335 431q-9 96 -50.5 146.5t-110.5 50.5q-98 0 -137 -98t-39 -359q0 -67 0.5 -103.5t1.5 -67.5zM227 127l-143 -178l-88 76l158 204q-49 101 -73 224t-24 278
q0 380 142 570t426 190q124 0 221.5 -38t177.5 -118l143 178l88 -73l-155 -205q48 -100 71 -223.5t23 -280.5q0 -379 -142.5 -568.5t-426.5 -189.5q-128 0 -229 39.5t-169 114.5z" />
    <glyph glyph-name="infinity" unicode="&#x221e;" horiz-adv-x="1706" 
d="M975 561q40 -57 95 -86t124 -29q84 0 137 43t53 109q0 65 -48 109.5t-117 44.5q-66 0 -122.5 -44t-121.5 -147zM731 653q-41 58 -95 86.5t-124 28.5q-84 0 -136 -43t-52 -111q0 -64 47.5 -107.5t117.5 -43.5q67 0 123 44t119 146zM856 791q69 128 149 190.5t175 62.5
q143 0 244.5 -126t101.5 -312q0 -194 -90.5 -315t-233.5 -121q-88 0 -164 53t-188 201q-67 -129 -146.5 -191.5t-175.5 -62.5q-144 0 -245 126t-101 312q0 195 89.5 315.5t232.5 120.5q85 0 161 -53t191 -200z" />
    <glyph glyph-name="plusminus" unicode="&#xb1;" horiz-adv-x="1706" 
d="M1452 231v-272h-1198v272h1198zM993 1262v-310h459v-272h-459v-309h-280v309h-459v272h459v310h280z" />
    <glyph glyph-name="lessequal" unicode="&#x2264;" horiz-adv-x="1706" 
d="M1454 236v-271h-1200v271h1200zM1452 999l-704 -208l704 -209v-281l-1198 371v237l1198 373v-283z" />
    <glyph glyph-name="greaterequal" unicode="&#x2265;" horiz-adv-x="1706" 
d="M1454 236v-271h-1200v271h1200zM1452 909v-237l-1196 -371v281l705 209l-705 208v283z" />
    <glyph glyph-name="yen" unicode="&#xa5;" horiz-adv-x="1147" 
d="M362 1460l211 -612l211 612h353l-211 -522h211v-131h-267l-63 -156h330v-133h-385v-518h-357v518h-385v133h330l-64 156h-266v131h211l-211 522h352z" />
    <glyph glyph-name="mu" unicode="&#xb5;" horiz-adv-x="1372" 
d="M602 1087l-84 -614q-2 -22 -3 -33.5t-1 -19.5q0 -68 31.5 -100.5t95.5 -32.5q79 0 124 52t60 161l84 587h418l-158 -1087h-368l18 131q-36 -68 -82.5 -101.5t-105.5 -33.5q-61 0 -105.5 31.5t-70.5 93.5l-72 -543h-412l209 1509h422z" />
    <glyph glyph-name="partialdiff" unicode="&#x2202;" horiz-adv-x="1139" 
d="M770 715q25 127 35 210t10 150q0 105 -26.5 159t-77.5 54q-32 0 -57 -21t-52 -71q-44 -80 -91.5 -119t-100.5 -39q-62 0 -103 37.5t-41 95.5q0 87 102.5 148t249.5 61q224 0 352 -162.5t128 -449.5q0 -348 -167.5 -569.5t-432.5 -221.5q-215 0 -338 115.5t-123 317.5
q0 204 126 340.5t308 136.5q96 0 172 -43.5t127 -128.5zM694 553q0 114 -34 172.5t-99 58.5q-90 0 -150.5 -140.5t-60.5 -354.5q0 -115 34 -172.5t101 -57.5q90 0 149.5 140t59.5 354z" />
    <glyph glyph-name="summation" unicode="&#x2211;" horiz-adv-x="1583" 
d="M80 1473h1368v-353h-778l559 -557l-541 -600h846v-356h-1475v200l664 738l-643 629v299z" />
    <glyph glyph-name="product" unicode="&#x220f;" horiz-adv-x="1688" 
d="M139 1473h1399v-1866h-473v1474h-453v-1474h-473v1866z" />
    <glyph glyph-name="pi" unicode="&#x3c0;" horiz-adv-x="1716" 
d="M1661 846h-180l-119 -846h-418l119 846h-227l-119 -846h-418l119 846h-29q-32 0 -57.5 -37t-32.5 -96h-258q36 216 127.5 295t312.5 79h1221z" />
    <glyph glyph-name="integral" unicode="&#x222b;" horiz-adv-x="1331" 
d="M379 -244q28 0 54 42t42 114q19 92 26 385q4 185 9 293q23 515 144 742t368 227q118 0 190 -58.5t72 -150.5q0 -69 -46 -112.5t-116 -43.5q-67 0 -101 40.5t-34 119.5q0 2 1 10.5t1 15.5q0 26 -8.5 38t-26.5 12q-103 0 -126 -661q-2 -58 -3 -88q-11 -334 -36 -484.5
t-74 -266.5q-65 -150 -166.5 -226.5t-237.5 -76.5q-118 0 -189 57t-71 152q0 72 45 114t121 42q62 0 96.5 -37.5t34.5 -104.5q0 -12 -1 -30t-1 -23q0 -20 8.5 -30.5t24.5 -10.5z" />
    <glyph glyph-name="ordfeminine" unicode="&#xaa;" horiz-adv-x="733" 
d="M432 811q-47 -45 -91 -65.5t-95 -20.5q-100 0 -160.5 58t-60.5 155q0 125 101.5 193t301.5 75v39q0 46 -15.5 67t-47.5 21q-37 0 -56.5 -23.5t-23.5 -72.5l-222 41q22 99 100.5 150t211.5 51q97 0 166.5 -29t107.5 -86q15 -23 21 -65.5t6 -143.5v-326q0 -29 5.5 -50.5
t16.5 -37.5h-258zM422 926v161q-69 0 -106 -30.5t-37 -87.5q0 -43 16.5 -64.5t50.5 -21.5q22 0 41.5 11t34.5 32z" />
    <glyph glyph-name="ordmasculine" unicode="&#xba;" horiz-adv-x="768" 
d="M299 1102q0 -127 19.5 -175t66.5 -48t66.5 48t19.5 175t-19.5 175t-66.5 48q-46 0 -66 -50t-20 -173zM385 725q-163 0 -256.5 100.5t-93.5 276.5t93.5 276.5t256.5 100.5t255.5 -100.5t92.5 -276.5q0 -177 -92.5 -277t-255.5 -100z" />
    <glyph glyph-name="Omega" unicode="&#x3a9;" horiz-adv-x="1706" 
d="M1671 350v-350h-661v403q67 81 101 176.5t34 202.5q0 165 -80 263t-213 98t-212 -98t-79 -263q0 -107 34 -202.5t101 -176.5v-403h-661v350h371q-144 82 -215.5 209.5t-71.5 300.5q0 291 201.5 471t531.5 180t532.5 -180.5t202.5 -470.5q0 -173 -71.5 -300.5
t-215.5 -209.5h371z" />
    <glyph glyph-name="ae" unicode="&#xe6;" horiz-adv-x="1485" 
d="M883 647h245v17q0 87 -32 134.5t-90 47.5q-59 0 -91 -47.5t-32 -134.5v-17zM883 444q0 -118 39 -183.5t110 -65.5q56 0 102.5 38t71.5 105l226 -82q-60 -138 -164 -209.5t-244 -71.5q-127 0 -221 49.5t-166 153.5q-74 -106 -148 -154.5t-161 -48.5q-134 0 -214.5 83.5
t-80.5 222.5q0 179 135 275.5t401 107.5v55q0 67 -19.5 97t-64.5 30q-48 0 -74 -33.5t-32 -103.5l-295 57q28 139 132 213t271 74q95 0 156 -28.5t100 -90.5q55 59 125.5 89t155.5 30q194 0 305 -141t111 -390q0 -25 -0.5 -42t-1.5 -35zM582 297q-11 46 -16 83.5t-5 70.5
q0 19 0.5 27.5t1.5 16.5q-93 1 -142.5 -43.5t-49.5 -127.5q0 -60 22.5 -90.5t67.5 -30.5q39 0 71.5 25t49.5 69z" />
    <glyph glyph-name="oslash" unicode="&#xf8;" 
d="M631 563l-225 -247q7 -64 35 -99t71 -35q64 0 91.5 71t27.5 241v69zM199 86l-103 -115l-82 72l117 131q-43 68 -63.5 151t-20.5 189q0 253 124 396t341 143q91 0 169 -28t144 -83l103 115l82 -72l-117 -131q42 -70 63 -153.5t21 -186.5q0 -251 -124 -395t-341 -144
q-88 0 -167 28t-146 83zM393 465l225 249q-7 64 -35 99t-71 35q-63 0 -91 -73t-28 -245v-65z" />
    <glyph glyph-name="questiondown" unicode="&#xbf;" horiz-adv-x="938" 
d="M637 944v-82q0 -81 -25 -150.5t-84 -146.5q-19 -25 -59 -69q-92 -102 -92 -166q0 -54 32 -86.5t85 -32.5q67 0 102 50t35 149v24l294 -53q-9 -189 -130.5 -299.5t-319.5 -110.5q-200 0 -318 90.5t-118 241.5q0 118 159 297q26 29 40 45v1q110 129 110 280v18h289z
M668 1460v-364h-351v364h351z" />
    <glyph glyph-name="exclamdown" unicode="&#xa1;" horiz-adv-x="541" 
d="M158 952h221l80 -952h-381zM444 1460v-364h-350v364h350z" />
    <glyph glyph-name="logicalnot" unicode="&#xac;" horiz-adv-x="1706" 
d="M1452 868v-501h-272v235h-926v266h1198z" />
    <glyph glyph-name="radical" unicode="&#x221a;" horiz-adv-x="1395" 
d="M1399 1737v-172h-86l-588 -1606h-143l-301 827l-156 -59l-41 154l395 139l209 -600l483 1317h228z" />
    <glyph glyph-name="florin" unicode="&#x192;" horiz-adv-x="1147" 
d="M678 100q-19 -230 -100.5 -326t-253.5 -96q-40 1 -92 5.5t-115 13.5v246q15 -2 31 -3t45 -1q86 0 119 40t46 197l43 498h-172v162h187l20 221q21 231 102.5 326.5t254.5 95.5q37 0 88.5 -5t115.5 -14v-246q-5 1 -15 2q-40 3 -58 3q-85 0 -119 -38.5t-49 -201.5l-15 -143
h162v-162h-176z" />
    <glyph glyph-name="approxequal" unicode="&#x2248;" horiz-adv-x="1706" 
d="M1530 309q-106 -69 -195.5 -101t-177.5 -32q-87 0 -280 64.5t-316 64.5q-82 0 -172.5 -37t-210.5 -121v299q115 74 213 108t197 34q119 0 308.5 -64.5t268.5 -64.5q83 0 169 34.5t196 114.5v-299zM1530 774q-106 -70 -195 -101.5t-176 -31.5q-88 0 -281 64.5t-317 64.5
q-84 0 -173 -36t-210 -120v299q116 73 214 106.5t196 33.5q119 0 308.5 -63.5t268.5 -63.5q85 0 171.5 35t193.5 114v-301z" />
    <glyph glyph-name="Delta" unicode="&#x2206;" horiz-adv-x="1505" 
d="M958 309l-206 705l-207 -705h413zM991 1473l518 -1473h-1515l518 1473h479z" />
    <glyph glyph-name="guillemotleft" unicode="&#xab;" horiz-adv-x="895" 
d="M684 514l158 -324l-187 -92l-202 416l202 416l187 -92zM291 514l158 -324l-187 -92l-203 416l203 416l187 -92z" />
    <glyph glyph-name="guillemotright" unicode="&#xbb;" horiz-adv-x="895" 
d="M604 514l-155 324l186 92l203 -416l-203 -416l-186 92zM211 514l-156 324l187 92l200 -416l-200 -416l-187 92z" />
    <glyph glyph-name="ellipsis" unicode="&#x2026;" horiz-adv-x="2048" 
d="M166 0v365h352v-365h-352zM848 0v365h352v-365h-352zM1532 0v365h352v-365h-352z" />
    <glyph glyph-name="nonbreakingspace" unicode="&#xa0;" horiz-adv-x="1147" 
 />
    <glyph glyph-name="Agrave" unicode="&#xc0;" horiz-adv-x="1075" 
d="M395 553h226l-109 588zM-35 0l346 1460h482l317 -1460h-379l-55 295h-340l-62 -295h-309zM244 1970h287l192 -371h-154z" />
    <glyph glyph-name="Atilde" unicode="&#xc3;" horiz-adv-x="1075" 
d="M395 553h226l-109 588zM-35 0l346 1460h482l317 -1460h-379l-55 295h-340l-62 -295h-309zM881 1925q-30 -132 -82.5 -193t-136.5 -61q-19 0 -37.5 3t-38.5 9l-92 27q-23 6 -40 9t-28 3q-33 0 -54.5 -18.5t-35.5 -59.5h-119q28 126 80.5 186t134.5 60q19 0 42 -3.5
t48 -10.5l95 -29q12 -4 26 -6t31 -2q33 0 55 22t33 64h119z" />
    <glyph glyph-name="Otilde" unicode="&#xd5;" horiz-adv-x="1251" 
d="M627 248q96 0 133 93t37 390q0 298 -37 392t-133 94q-97 0 -134.5 -95.5t-37.5 -390.5q0 -294 37.5 -388.5t134.5 -94.5zM625 -27q-284 0 -426 189.5t-142 568.5q0 380 142 570t426 190t426.5 -190.5t142.5 -569.5t-142.5 -568.5t-426.5 -189.5zM959 1925
q-30 -132 -82.5 -193t-136.5 -61q-19 0 -37.5 3t-38.5 9l-92 27q-23 6 -40 9t-28 3q-33 0 -54.5 -18.5t-35.5 -59.5h-119q28 126 80.5 186t134.5 60q19 0 42 -3.5t48 -10.5l95 -29q12 -4 26 -6t31 -2q33 0 55 22t33 64h119z" />
    <glyph glyph-name="OE" unicode="&#x152;" horiz-adv-x="1726" 
d="M819 0v82q-45 -53 -106 -80t-135 -27q-248 0 -384.5 197.5t-136.5 558.5q0 363 135.5 559.5t385.5 196.5q76 0 138.5 -27.5t102.5 -79.5v80h875v-278h-541v-285h360v-279h-360v-339h541v-279h-875zM627 248q96 0 133 93t37 390q0 298 -37 392t-133 94q-97 0 -134.5 -95.5
t-37.5 -390.5q0 -294 37.5 -388.5t134.5 -94.5z" />
    <glyph glyph-name="oe" unicode="&#x153;" horiz-adv-x="1532" 
d="M932 647h246v17q0 86 -32 132t-91 46q-60 0 -91.5 -46t-31.5 -132v-17zM793 119q-40 -72 -110 -108t-171 -36q-217 0 -341 144t-124 395q0 253 124 396t341 143q100 0 169 -33.5t112 -101.5q55 71 118.5 103t149.5 32q204 0 316 -138.5t112 -392.5q0 -25 -0.5 -42
t-1.5 -35l-555 -1q0 -118 39.5 -183.5t109.5 -65.5q56 0 102.5 38t71.5 105l226 -82q-62 -140 -167.5 -210.5t-254.5 -70.5q-99 0 -165 36t-101 108zM397 514q0 -181 26 -250t89 -69t89 67.5t26 251.5t-26 252t-89 68q-62 0 -88.5 -71.5t-26.5 -248.5z" />
    <glyph glyph-name="endash" unicode="&#x2013;" 
d="M0 412v204h1024v-204h-1024z" />
    <glyph glyph-name="emdash" unicode="&#x2014;" horiz-adv-x="2048" 
d="M0 616h2048v-204h-2048v204z" />
    <glyph glyph-name="quotedblleft" unicode="&#x201c;" horiz-adv-x="967" 
d="M561 772v311l193 377h196l-159 -327h120v-361h-350zM63 772v311l193 377h197l-160 -327h121v-361h-351z" />
    <glyph glyph-name="quotedblright" unicode="&#x201d;" horiz-adv-x="967" 
d="M905 1460v-311l-192 -377h-199l162 328h-123v360h352zM408 1460v-311l-193 -377h-199l162 328h-123v360h353z" />
    <glyph glyph-name="quoteleft" unicode="&#x2018;" horiz-adv-x="469" 
d="M63 772v311l193 377h197l-160 -327h121v-361h-351z" />
    <glyph glyph-name="quoteright" unicode="&#x2019;" horiz-adv-x="469" 
d="M408 1460v-311l-193 -377h-199l162 328h-123v360h353z" />
    <glyph glyph-name="divide" unicode="&#xf7;" horiz-adv-x="1706" 
d="M854 371q74 0 128 -54t54 -129q0 -74 -54 -128t-130 -54t-129 53t-53 129q0 77 53.5 130t130.5 53zM1452 748v-273h-1198v273h1198zM854 1217q74 0 128 -55t54 -130q0 -74 -54 -128t-130 -54t-129 53t-53 129q0 77 54 131t130 54z" />
    <glyph glyph-name="lozenge" unicode="&#x25ca;" horiz-adv-x="1012" 
d="M506 1409l-385 -821l385 -821l385 821zM506 1653l500 -1065l-500 -1065l-500 1065z" />
    <glyph glyph-name="ydieresis" unicode="&#xff;" horiz-adv-x="807" 
d="M-16 -57q22 -7 44 -10t46 -3q90 0 134 31.5t44 95.5q0 25 -7.5 67.5t-21.5 90.5l-235 813h338l120 -584l142 584h256l-332 -1026q-38 -154 -143.5 -228.5t-286.5 -74.5q-39 0 -59.5 1t-38.5 3v240zM458 1212v271h252v-271h-252zM96 1212v271h250v-271h-250z" />
    <glyph glyph-name="Ydieresis" unicode="&#x178;" horiz-adv-x="995" 
d="M293 0v573l-361 887h392l184 -569l237 569h330l-409 -864v-596h-373zM553 1648v271h252v-271h-252zM191 1648v271h250v-271h-250z" />
    <glyph glyph-name="fraction" unicode="&#x2215;" horiz-adv-x="342" 
d="M506 1479h176l-846 -1504h-178z" />
    <glyph glyph-name="currency" unicode="&#xa4;" horiz-adv-x="1241" 
d="M866 885q0 98 -72.5 170.5t-170.5 72.5q-100 0 -173 -72.5t-73 -170.5q0 -100 72.5 -172t173.5 -72q99 0 171 72.5t72 171.5zM385 1253q53 35 110.5 51.5t127.5 16.5q68 0 126.5 -16.5t108.5 -51.5l199 199l133 -135l-197 -203q34 -54 50 -110.5t16 -118.5t-16.5 -119
t-49.5 -111l197 -200l-133 -138l-199 201q-52 -35 -110.5 -52t-124.5 -17q-68 0 -126 17t-112 52l-199 -201l-133 138l197 200q-33 52 -49.5 109t-16.5 123q0 63 16.5 119t49.5 108l-197 203l133 135z" />
    <glyph glyph-name="guilsinglleft" unicode="&#x2039;" horiz-adv-x="502" 
d="M291 514l158 -324l-187 -92l-203 416l203 416l187 -92z" />
    <glyph glyph-name="guilsinglright" unicode="&#x203a;" horiz-adv-x="502" 
d="M211 514l-156 324l187 92l200 -416l-200 -416l-187 92z" />
    <glyph glyph-name="fi" unicode="&#xf001;" horiz-adv-x="1157" 
d="M739 1151v295h332v-295h-332zM739 0v1028h332v-1028h-332zM147 0v815h-137v213h137v146q0 142 80.5 219t229.5 77q50 0 99 -3.5t95 -10.5v-242h-59q-66 0 -89.5 -24.5t-23.5 -95.5v-66h172v-213h-172v-815h-332z" />
    <glyph glyph-name="fl" unicode="&#xf002;" horiz-adv-x="1157" 
d="M739 0v1446h332v-1446h-332zM147 0v815h-137v213h137v146q0 142 80.5 219t229.5 77q50 0 99 -3.5t95 -10.5v-242h-59q-66 0 -89.5 -24.5t-23.5 -95.5v-66h172v-213h-172v-815h-332z" />
    <glyph glyph-name="daggerdbl" unicode="&#x2021;" 
d="M102 1139l349 -92l-97 413h316l-97 -413l349 92v-303l-349 96q22 -113 44.5 -194t48.5 -140q-27 -58 -50.5 -140.5t-44.5 -193.5l351 96v-303l-349 90l97 -411h-318l97 411l-347 -90v303l349 -96q-21 111 -44.5 193.5t-50.5 140.5q25 51 47.5 130.5t47.5 203.5l-349 -96
v303z" />
    <glyph glyph-name="periodcentered" unicode="&#xb7;" horiz-adv-x="573" 
d="M90 727q0 81 57.5 139t139.5 58q81 0 138.5 -58t57.5 -139t-58 -139t-138 -58t-138.5 58.5t-58.5 138.5z" />
    <glyph glyph-name="quotesinglbase" unicode="&#x201a;" horiz-adv-x="469" 
d="M408 360v-311l-193 -377h-199l162 328h-123v360h353z" />
    <glyph glyph-name="quotedblbase" unicode="&#x201e;" horiz-adv-x="967" 
d="M905 360v-311l-192 -377h-199l162 328h-123v360h352zM408 360v-311l-193 -377h-199l162 328h-123v360h353z" />
    <glyph glyph-name="perthousand" unicode="&#x2030;" horiz-adv-x="2030" 
d="M1729 -25q-143 0 -216 96.5t-73 284.5q0 189 72 284t217 95q144 0 216 -95t72 -284q0 -188 -73 -284.5t-215 -96.5zM1729 131q31 0 43 40.5t12 182.5q0 144 -12 186t-43 42q-32 0 -45 -46.5t-13 -181.5q0 -132 12.5 -177.5t45.5 -45.5zM983 1460h180l-780 -1460h-182z
M1057 -25q-143 0 -216 96.5t-73 284.5q0 189 72 284t217 95q144 0 216.5 -95t72.5 -284q0 -188 -73 -284.5t-216 -96.5zM1057 131q32 0 44.5 43t12.5 180q0 139 -12.5 183.5t-44.5 44.5t-45 -46.5t-13 -181.5q0 -132 13 -177.5t45 -45.5zM307 874q32 0 45 43.5t13 182.5
q0 138 -13 181.5t-45 43.5t-44.5 -46t-12.5 -179q0 -134 12.5 -180t44.5 -46zM307 721q-143 0 -216 95.5t-73 283.5q0 189 72.5 284t216.5 95t216.5 -95t72.5 -284q0 -188 -72.5 -283.5t-216.5 -95.5z" />
    <glyph glyph-name="Acircumflex" unicode="&#xc2;" horiz-adv-x="1075" 
d="M395 553h226l-109 588zM-35 0l346 1460h482l317 -1460h-379l-55 295h-340l-62 -295h-309zM227 1599l193 371h256l192 -371h-153l-166 199l-168 -199h-154z" />
    <glyph glyph-name="Ecircumflex" unicode="&#xca;" horiz-adv-x="1053" 
d="M104 0v1460h916v-278h-541v-285h361v-279h-361v-339h541v-279h-916zM262 1599l193 371h256l192 -371h-153l-166 199l-168 -199h-154z" />
    <glyph glyph-name="Aacute" unicode="&#xc1;" horiz-adv-x="1075" 
d="M395 553h226l-109 588zM-35 0l346 1460h482l317 -1460h-379l-55 295h-340l-62 -295h-309zM854 1970l-325 -371h-154l192 371h287z" />
    <glyph glyph-name="Edieresis" unicode="&#xcb;" horiz-adv-x="1053" 
d="M104 0v1460h916v-278h-541v-285h361v-279h-361v-339h541v-279h-916zM639 1648v271h252v-271h-252zM277 1648v271h250v-271h-250z" />
    <glyph glyph-name="Egrave" unicode="&#xc8;" horiz-adv-x="1053" 
d="M104 0v1460h916v-278h-541v-285h361v-279h-361v-339h541v-279h-916zM279 1970h287l192 -371h-154z" />
    <glyph glyph-name="Iacute" unicode="&#xcd;" horiz-adv-x="588" 
d="M104 0v1460h379v-1460h-379zM600 1970l-325 -371h-154l192 371h287z" />
    <glyph glyph-name="Icircumflex" unicode="&#xce;" horiz-adv-x="588" 
d="M104 0v1460h379v-1460h-379zM-27 1599l193 371h256l192 -371h-153l-166 199l-168 -199h-154z" />
    <glyph glyph-name="Idieresis" unicode="&#xcf;" horiz-adv-x="588" 
d="M104 0v1460h379v-1460h-379zM350 1648v271h252v-271h-252zM-12 1648v271h250v-271h-250z" />
    <glyph glyph-name="Igrave" unicode="&#xcc;" horiz-adv-x="588" 
d="M104 0v1460h379v-1460h-379zM-10 1970h287l192 -371h-154z" />
    <glyph glyph-name="Oacute" unicode="&#xd3;" horiz-adv-x="1251" 
d="M627 248q96 0 133 93t37 390q0 298 -37 392t-133 94q-97 0 -134.5 -95.5t-37.5 -390.5q0 -294 37.5 -388.5t134.5 -94.5zM625 -27q-284 0 -426 189.5t-142 568.5q0 380 142 570t426 190t426.5 -190.5t142.5 -569.5t-142.5 -568.5t-426.5 -189.5zM932 1970l-325 -371h-154
l192 371h287z" />
    <glyph glyph-name="Ocircumflex" unicode="&#xd4;" horiz-adv-x="1251" 
d="M627 248q96 0 133 93t37 390q0 298 -37 392t-133 94q-97 0 -134.5 -95.5t-37.5 -390.5q0 -294 37.5 -388.5t134.5 -94.5zM625 -27q-284 0 -426 189.5t-142 568.5q0 380 142 570t426 190t426.5 -190.5t142.5 -569.5t-142.5 -568.5t-426.5 -189.5zM305 1599l193 371h256
l192 -371h-153l-166 199l-168 -199h-154z" />
    <glyph glyph-name="apple" unicode="&#xf000;" horiz-adv-x="1618" 
d="M836 1216q-1 6 -1.5 14t-0.5 23q0 124 95 229.5t236 131.5q1 -10 1.5 -23t0.5 -39q0 -131 -103.5 -234.5t-203.5 -103.5h-8q-3 0 -7.5 1t-8.5 1zM1505 403q-114 -247 -205 -342.5t-204 -95.5q-50 0 -131.5 33t-122.5 33q-45 0 -131 -33t-127 -33q-64 0 -128.5 44
t-129.5 132q-102 140 -157.5 295.5t-55.5 300.5q0 219 125 356.5t323 137.5q68 0 155 -34t124 -34q34 0 121.5 34t152.5 34q111 0 199 -39.5t160 -122.5q-102 -65 -151.5 -145.5t-49.5 -182.5q0 -113 60 -200t173 -138z" />
    <glyph glyph-name="Ograve" unicode="&#xd2;" horiz-adv-x="1251" 
d="M627 248q96 0 133 93t37 390q0 298 -37 392t-133 94q-97 0 -134.5 -95.5t-37.5 -390.5q0 -294 37.5 -388.5t134.5 -94.5zM625 -27q-284 0 -426 189.5t-142 568.5q0 380 142 570t426 190t426.5 -190.5t142.5 -569.5t-142.5 -568.5t-426.5 -189.5zM322 1970h287l192 -371
h-154z" />
    <glyph glyph-name="Uacute" unicode="&#xda;" horiz-adv-x="1190" 
d="M469 1460v-1009q0 -107 37.5 -154t120.5 -47q82 0 118.5 46.5t36.5 154.5v1009h314v-1063q0 -198 -133 -312t-367 -114t-368 114t-134 312v1063h375zM926 1970l-325 -371h-154l192 371h287z" />
    <glyph glyph-name="Ucircumflex" unicode="&#xdb;" horiz-adv-x="1190" 
d="M469 1460v-1009q0 -107 37.5 -154t120.5 -47q82 0 118.5 46.5t36.5 154.5v1009h314v-1063q0 -198 -133 -312t-367 -114t-368 114t-134 312v1063h375zM299 1599l193 371h256l192 -371h-153l-166 199l-168 -199h-154z" />
    <glyph glyph-name="Ugrave" unicode="&#xd9;" horiz-adv-x="1190" 
d="M469 1460v-1009q0 -107 37.5 -154t120.5 -47q82 0 118.5 46.5t36.5 154.5v1009h314v-1063q0 -198 -133 -312t-367 -114t-368 114t-134 312v1063h375zM316 1970h287l192 -371h-154z" />
    <glyph glyph-name="dotlessi" unicode="&#x131;" horiz-adv-x="502" 
d="M86 0v1028h332v-1028h-332z" />
    <glyph glyph-name="circumflex" unicode="&#x2c6;" 
d="M190 1163l193 371h256l192 -371h-153l-166 199l-168 -199h-154z" />
    <glyph glyph-name="tilde" unicode="&#x2dc;" 
d="M844 1489q-30 -132 -82.5 -193t-136.5 -61q-19 0 -37.5 3t-38.5 9l-92 27q-23 6 -40 9t-28 3q-33 0 -54.5 -18.5t-35.5 -59.5h-119q28 126 80.5 186t134.5 60q19 0 42 -3.5t48 -10.5l95 -29q12 -4 26 -6t31 -2q33 0 55 22t33 64h119z" />
    <glyph glyph-name="macron" unicode="&#xaf;" 
d="M205 1264v170h614v-170h-614z" />
    <glyph glyph-name="breve" unicode="&#x2d8;" 
d="M197 1501h131q6 -71 50.5 -105t133.5 -34q88 0 133.5 35t49.5 104h130q-12 -159 -87.5 -233t-225.5 -74t-227.5 75.5t-87.5 231.5z" />
    <glyph glyph-name="dotaccent" unicode="&#x2d9;" 
d="M383 1208v281h260v-281h-260z" />
    <glyph glyph-name="ring" unicode="&#x2da;" 
d="M397 1415q0 -48 33 -81.5t82 -33.5q48 0 81.5 34t33.5 81q0 48 -33.5 81.5t-81.5 33.5t-81.5 -33.5t-33.5 -81.5zM242 1415q0 114 78.5 193.5t191.5 79.5q114 0 193 -79.5t79 -193.5q0 -113 -79 -191.5t-193 -78.5t-192 78t-78 192z" />
    <glyph glyph-name="cedilla" unicode="&#xb8;" 
d="M272 -438v137q80 -22 149.5 -33.5t121.5 -11.5q43 0 64.5 17.5t21.5 54.5q0 32 -28.5 47.5t-90.5 15.5q-21 0 -33 -0.5t-22 -1.5v213h114v-84h19q111 0 170 -49.5t59 -142.5q0 -100 -66 -154.5t-188 -54.5q-58 0 -130 11.5t-161 35.5z" />
    <glyph glyph-name="hungarumlaut" unicode="&#x2dd;" 
d="M569 1163l156 371h254l-291 -371h-119zM397 1534h246l-252 -371h-110z" />
    <glyph glyph-name="ogonek" unicode="&#x2db;" 
d="M633 0q-63 -58 -91 -104.5t-28 -92.5q0 -41 18.5 -60t57.5 -19h102v-191h-74q-156 0 -221 45.5t-65 151.5q0 76 46.5 141t145.5 129h109z" />
    <glyph glyph-name="caron" unicode="&#x2c7;" 
d="M190 1534h154l168 -199l166 199h153l-192 -371h-256z" />
    <glyph glyph-name="Lslash" unicode="&#x141;" horiz-adv-x="948" 
d="M104 0v575l-104 -73v211l104 71v676h375v-495l219 151v-209l-219 -153v-475h496v-279h-871z" />
    <glyph glyph-name="lslash" unicode="&#x142;" horiz-adv-x="502" 
d="M86 0v559l-86 -59v153l86 58v735h332v-559l84 59v-153l-84 -62v-731h-332z" />
    <glyph glyph-name="Scaron" unicode="&#x160;" horiz-adv-x="1100" 
d="M313 463q43 -106 105.5 -160.5t140.5 -54.5q73 0 114.5 34.5t41.5 96.5q0 53 -39.5 92.5t-192.5 110.5q-251 117 -333 213.5t-82 240.5q0 199 138.5 326t354.5 127q165 0 287.5 -86t179.5 -242l-291 -114q-32 86 -78.5 126.5t-111.5 40.5q-58 0 -93.5 -32.5t-35.5 -85.5
q0 -47 42 -84t185 -101q15 -6 46 -20q150 -64 229 -123q75 -57 115 -140.5t40 -183.5q0 -85 -32 -165.5t-93 -147.5q-71 -79 -172 -119.5t-227 -40.5q-198 0 -336 95.5t-207 279.5zM229 1970h154l168 -199l166 199h153l-192 -371h-256z" />
    <glyph glyph-name="scaron" unicode="&#x161;" horiz-adv-x="909" 
d="M268 356q26 -72 71 -110.5t103 -38.5q50 0 79.5 21t29.5 57q0 59 -149 114q-61 22 -97 37q-142 59 -198 124.5t-56 164.5q0 148 106 238t281 90q169 0 267 -66.5t141 -208.5l-236 -63q-20 66 -58.5 100.5t-92.5 34.5q-44 0 -71.5 -20t-27.5 -52q0 -27 22.5 -47t100.5 -51
q249 -99 313 -168.5t64 -181.5q0 -158 -116 -255.5t-308 -97.5q-152 0 -259 76t-159 221zM133 1534h154l168 -199l166 199h153l-192 -371h-256z" />
    <glyph glyph-name="Zcaron" unicode="&#x17d;" 
d="M14 0v201l533 981h-465v278h922v-192l-529 -989h529v-279h-990zM190 1970h154l168 -199l166 199h153l-192 -371h-256z" />
    <glyph glyph-name="zcaron" unicode="&#x17e;" horiz-adv-x="834" 
d="M795 1028v-205l-379 -610h379v-213h-779v172l412 643h-346v213h713zM96 1534h154l168 -199l166 199h153l-192 -371h-256z" />
    <glyph glyph-name="brokenbar" unicode="&#xa6;" 
d="M653 408v-758h-280v758h280zM653 1432v-758h-280v758h280z" />
    <glyph glyph-name="Eth" unicode="&#xd0;" horiz-adv-x="1223" 
d="M479 1194v-367h144v-165h-144v-396h39q137 0 193.5 102t56.5 361q0 260 -56.5 362.5t-193.5 102.5h-39zM104 1460h439q304 0 463 -186.5t159 -544.5q0 -357 -159 -543t-463 -186h-439v662h-104v165h104v633z" />
    <glyph glyph-name="eth" unicode="&#xf0;" 
d="M512 770q-63 0 -89 -62.5t-26 -224.5q0 -163 26 -225.5t89 -62.5t89 61t26 227q0 163 -26 225t-89 62zM573 977q-23 44 -49.5 83.5t-54.5 74.5l-264 -97l-45 125l219 80q-41 41 -72 68.5t-59 48.5l123 139q58 -39 114 -83.5t109 -92.5l268 96l43 -125l-200 -73
q139 -157 205.5 -326t66.5 -369q0 -268 -119.5 -409.5t-345.5 -141.5q-216 0 -340.5 137t-124.5 375q0 229 118 365.5t314 136.5q21 0 45 -3t49 -9z" />
    <glyph glyph-name="Yacute" unicode="&#xdd;" horiz-adv-x="995" 
d="M293 0v573l-361 887h392l184 -569l237 569h330l-409 -864v-596h-373zM803 1970l-325 -371h-154l192 371h287z" />
    <glyph glyph-name="yacute" unicode="&#xfd;" horiz-adv-x="807" 
d="M-16 -57q22 -7 44 -10t46 -3q90 0 134 31.5t44 95.5q0 25 -7.5 67.5t-21.5 90.5l-235 813h338l120 -584l142 584h256l-332 -1026q-38 -154 -143.5 -228.5t-286.5 -74.5q-39 0 -59.5 1t-38.5 3v240zM708 1534l-325 -371h-154l192 371h287z" />
    <glyph glyph-name="Thorn" unicode="&#xde;" horiz-adv-x="1161" 
d="M479 934v-346h45q132 0 188 40.5t56 133.5q0 92 -56.5 132t-187.5 40h-45zM479 0h-375v1460h375v-264h129q272 0 407.5 -108.5t135.5 -325.5q0 -207 -134.5 -322.5t-377.5 -115.5q-32 0 -70.5 2.5t-89.5 6.5v-333z" />
    <glyph glyph-name="thorn" unicode="&#xfe;" horiz-adv-x="1014" 
d="M418 94v-397h-332v1749h332v-504q44 55 96 83t111 28q162 0 251 -131.5t89 -370.5q0 -262 -92 -406.5t-259 -144.5q-61 0 -109.5 23t-86.5 71zM418 248q29 -31 54 -45.5t48 -14.5q54 0 74 55t20 279q0 225 -20 279.5t-74 54.5q-23 0 -48 -14.5t-54 -44.5v-549z" />
    <glyph glyph-name="minus" unicode="&#x2212;" horiz-adv-x="1706" 
d="M1452 750v-277h-1198v277h1198z" />
    <glyph glyph-name="multiply" unicode="&#xd7;" horiz-adv-x="1706" 
d="M874 805l426 426l195 -195l-426 -426l426 -426l-195 -194l-426 426l-425 -426l-195 194l426 426l-426 426l195 195z" />
    <glyph glyph-name="onesuperior" unicode="&#xb9;" horiz-adv-x="758" 
d="M141 582v147h148v510l-148 -31v150q69 14 130.5 39t117.5 61h127v-729h135v-147h-510z" />
    <glyph glyph-name="twosuperior" unicode="&#xb2;" horiz-adv-x="758" 
d="M29 582v153q265 221 345.5 317.5t80.5 170.5q0 41 -20.5 64.5t-55.5 23.5q-42 0 -71 -31t-52 -100l-207 47q35 113 126 177t216 64q143 0 225 -64.5t82 -176.5q0 -106 -91.5 -211.5t-311.5 -247.5h387v-186h-653z" />
    <glyph glyph-name="threesuperior" unicode="&#xb3;" horiz-adv-x="758" 
d="M188 831q22 -52 56 -78t80 -26q56 0 87 28.5t31 80.5q0 61 -44.5 91.5t-133.5 30.5q-18 0 -27.5 -0.5t-17.5 -0.5v144q7 0 15 -0.5t22 -0.5q85 0 129.5 31t44.5 92q0 39 -26.5 64.5t-67.5 25.5t-73 -25.5t-52 -75.5l-180 78q39 86 123.5 132t199.5 46q137 0 226.5 -66
t89.5 -165q0 -76 -53.5 -127.5t-153.5 -71.5q113 -9 173 -62t60 -142q0 -119 -99 -193t-259 -74q-121 0 -202.5 47t-127.5 144z" />
    <glyph glyph-name="onequarter" unicode="&#xbc;" horiz-adv-x="1788" 
d="M1262 340h165l9 272zM1423 0v203h-321v137l321 477h222v-477h116v-137h-116v-203h-222zM1229 1479h176l-846 -1504h-178zM135 641v137h139v477l-139 -28v139q64 12 123 35t113 57h123v-680h129v-137h-488z" />
    <glyph glyph-name="onehalf" unicode="&#xbd;" horiz-adv-x="1788" 
d="M1092 0v143q257 211 332 299t75 156q0 39 -19.5 61.5t-54.5 22.5q-40 0 -67.5 -30t-46.5 -95l-199 45q34 106 120.5 165.5t205.5 59.5q136 0 215.5 -60.5t79.5 -164.5q0 -98 -88.5 -197t-298.5 -231h370v-174h-624zM1229 1479h176l-846 -1504h-178zM135 641v137h139v477
l-139 -28v139q64 12 123 35t113 57h123v-680h129v-137h-488z" />
    <glyph glyph-name="threequarters" unicode="&#xbe;" horiz-adv-x="1788" 
d="M1262 340h165l9 272zM1423 0v203h-321v137l321 477h222v-477h116v-137h-116v-203h-222zM1229 1479h176l-846 -1504h-178zM180 874q20 -49 52.5 -73.5t76.5 -24.5q54 0 84.5 27t30.5 74q0 57 -42.5 85.5t-129.5 28.5h-43v135q7 -1 14.5 -1.5t22.5 -0.5q80 0 122 29.5
t42 85.5q0 37 -25.5 60.5t-65.5 23.5t-70 -23.5t-48 -68.5l-172 72q38 79 118 122t191 43q131 0 216 -61.5t85 -155.5q0 -69 -50.5 -116.5t-145.5 -67.5q107 -9 164 -58t57 -132q0 -111 -94.5 -180.5t-245.5 -69.5q-117 0 -194 44t-122 136z" />
    <glyph glyph-name="franc" unicode="&#x20a3;" horiz-adv-x="1759" 
d="M104 0v1460h945v-278h-570v-285h361v-279h-361v-618h-375zM1106 0v1028h332v-141q44 83 120.5 123.5t190.5 40.5v-334q-38 13 -72 19.5t-65 6.5q-61 0 -103.5 -19.5t-70.5 -61.5v-662h-332z" />
    <glyph glyph-name="Gbreve" unicode="&#x11e;" horiz-adv-x="1208" 
d="M903 111q-63 -71 -142 -105.5t-177 -34.5q-252 0 -389.5 183.5t-137.5 523.5q0 402 144 606.5t426 204.5q236 0 374 -143t138 -388v-20h-355q0 139 -39 204.5t-120 65.5q-95 0 -132.5 -111t-37.5 -419q0 -251 39.5 -343.5t136.5 -92.5q80 0 125 61t45 170v6h-178v248h507
v-733h-157zM289 1937h131q6 -71 50.5 -105t133.5 -34q88 0 133.5 35t49.5 104h130q-12 -159 -87.5 -233t-225.5 -74t-227.5 75.5t-87.5 231.5z" />
    <glyph glyph-name="gbreve" unicode="&#x11f;" horiz-adv-x="985" 
d="M477 -127q113 0 166 21.5t53 66.5q0 47 -58.5 71.5t-170.5 24.5q-100 0 -152.5 -24.5t-52.5 -71.5q0 -44 53.5 -66t161.5 -22zM475 578q53 0 82 41.5t29 117.5q0 77 -29.5 120.5t-81.5 43.5t-81 -43.5t-29 -120.5q0 -76 29 -117.5t81 -41.5zM188 96q-69 31 -103 71
t-34 91q0 62 49 114.5t142 90.5q-101 66 -142 127t-41 143q0 138 115.5 228t298.5 90q83 0 153.5 -17.5t129.5 -52.5q55 61 121 94.5t138 36.5l1 -254q-24 22 -51 32.5t-60 10.5q-17 0 -29 -4t-22 -12q19 -40 29 -78.5t10 -73.5q0 -142 -113.5 -229.5t-298.5 -87.5
q-22 0 -83 9q-12 2 -19 3q-19 -11 -28 -24.5t-9 -30.5q0 -61 163 -64q50 -1 79 -2q203 -15 299 -85.5t96 -203.5q0 -155 -137.5 -239t-392.5 -84q-218 0 -333.5 56t-115.5 161q0 69 50 118.5t138 65.5zM179 1501h131q6 -71 50.5 -105t133.5 -34q88 0 133.5 35t49.5 104h130
q-12 -159 -87.5 -233t-225.5 -74t-227.5 75.5t-87.5 231.5z" />
    <glyph glyph-name="Idotaccent" unicode="&#x130;" horiz-adv-x="588" 
d="M104 0v1460h379v-1460h-379zM166 1644v281h260v-281h-260z" />
    <glyph glyph-name="Scedilla" unicode="&#x15e;" horiz-adv-x="1100" 
d="M313 463q43 -106 105.5 -160.5t140.5 -54.5q73 0 114.5 34.5t41.5 96.5q0 53 -39.5 92.5t-192.5 110.5q-251 117 -333 213.5t-82 240.5q0 199 138.5 326t354.5 127q165 0 287.5 -86t179.5 -242l-291 -114q-32 86 -78.5 126.5t-111.5 40.5q-58 0 -93.5 -32.5t-35.5 -85.5
q0 -47 42 -84t185 -101q15 -6 46 -20q150 -64 229 -123q75 -57 115 -140.5t40 -183.5q0 -85 -32 -165.5t-93 -147.5q-71 -79 -172 -119.5t-227 -40.5q-198 0 -336 95.5t-207 279.5zM311 -438v137q80 -22 149.5 -33.5t121.5 -11.5q43 0 64.5 17.5t21.5 54.5q0 32 -28.5 47.5
t-90.5 15.5q-21 0 -33 -0.5t-22 -1.5v213h114v-84h19q111 0 170 -49.5t59 -142.5q0 -100 -66 -154.5t-188 -54.5q-58 0 -130 11.5t-161 35.5z" />
    <glyph glyph-name="scedilla" unicode="&#x15f;" horiz-adv-x="909" 
d="M268 356q26 -72 71 -110.5t103 -38.5q50 0 79.5 21t29.5 57q0 59 -149 114q-61 22 -97 37q-142 59 -198 124.5t-56 164.5q0 148 106 238t281 90q169 0 267 -66.5t141 -208.5l-236 -63q-20 66 -58.5 100.5t-92.5 34.5q-44 0 -71.5 -20t-27.5 -52q0 -27 22.5 -47t100.5 -51
q249 -99 313 -168.5t64 -181.5q0 -158 -116 -255.5t-308 -97.5q-152 0 -259 76t-159 221zM215 -438v137q80 -22 149.5 -33.5t121.5 -11.5q43 0 64.5 17.5t21.5 54.5q0 32 -28.5 47.5t-90.5 15.5q-21 0 -33 -0.5t-22 -1.5v213h114v-84h19q111 0 170 -49.5t59 -142.5
q0 -100 -66 -154.5t-188 -54.5q-58 0 -130 11.5t-161 35.5z" />
    <glyph glyph-name="Cacute" unicode="&#x106;" horiz-adv-x="1176" 
d="M1124 512v-18q0 -238 -136 -380.5t-361 -142.5q-271 0 -420.5 198t-149.5 560q0 366 150.5 563t427.5 197q229 0 362.5 -144.5t134.5 -392.5l-348 -2q-6 139 -43.5 201.5t-113.5 62.5q-92 0 -131 -107.5t-39 -377.5q0 -276 39.5 -379.5t136.5 -103.5q80 0 123 72.5
t51 220.5zM950 1970l-325 -371h-154l192 371h287z" />
    <glyph glyph-name="cacute" unicode="&#x107;" horiz-adv-x="930" 
d="M619 635q-4 105 -28 152t-73 47q-64 0 -91.5 -71t-27.5 -241q0 -188 26.5 -257.5t92.5 -69.5q61 0 92 50.5t31 147.5l256 -33q-26 -195 -125 -290t-278 -95q-206 0 -326.5 143.5t-120.5 389.5t127 395.5t336 149.5q186 0 285.5 -103t107.5 -303zM805 1534l-325 -371h-154
l192 371h287z" />
    <glyph glyph-name="Ccaron" unicode="&#x10c;" horiz-adv-x="1176" 
d="M1124 512v-18q0 -238 -136 -380.5t-361 -142.5q-271 0 -420.5 198t-149.5 560q0 366 150.5 563t427.5 197q229 0 362.5 -144.5t134.5 -392.5l-348 -2q-6 139 -43.5 201.5t-113.5 62.5q-92 0 -131 -107.5t-39 -377.5q0 -276 39.5 -379.5t136.5 -103.5q80 0 123 72.5
t51 220.5zM323 1970h154l168 -199l166 199h153l-192 -371h-256z" />
    <glyph glyph-name="ccaron" unicode="&#x10d;" horiz-adv-x="930" 
d="M619 635q-4 105 -28 152t-73 47q-64 0 -91.5 -71t-27.5 -241q0 -188 26.5 -257.5t92.5 -69.5q61 0 92 50.5t31 147.5l256 -33q-26 -195 -125 -290t-278 -95q-206 0 -326.5 143.5t-120.5 389.5t127 395.5t336 149.5q186 0 285.5 -103t107.5 -303zM178 1534h154l168 -199
l166 199h153l-192 -371h-256z" />
    <glyph glyph-name="dcroat" unicode="&#x111;" horiz-adv-x="1014" 
d="M604 0v90q-40 -53 -89.5 -77.5t-113.5 -24.5q-165 0 -258.5 145.5t-93.5 407.5q0 239 89 369t251 130q58 0 110.5 -27t98.5 -81v242h-227v118h227v154h332v-154h84v-118h-84v-1174h-326zM598 784q-28 30 -54 45t-50 15q-55 0 -75 -54.5t-20 -279.5t20 -279.5t75 -54.5
q23 0 49 15.5t55 46.5v546z" />
    <glyph glyph-name="sfthyphen" unicode="&#xad;" horiz-adv-x="588" 
d="M47 365v299h494v-299h-494z" />
    <glyph glyph-name="periodcentered" unicode="&#x2219;" horiz-adv-x="573" 
d="M90 727q0 81 57.5 139t139.5 58q81 0 138.5 -58t57.5 -139t-58 -139t-138 -58t-138.5 58.5t-58.5 138.5z" />
    </font>
</defs>
</svg>
